<svg id="Layer_1" data-name="Layer 1" xmlns="http://www.w3.org/2000/svg" viewBox="0 0 506.42 443.19"><title>pelikan-arch</title><rect x="1" y="1" width="445.54" height="126.23" style="fill:none;stroke:#939598;stroke-miterlimit:10;stroke-width:2px"/><rect x="269.13" y="24.41" width="121.68" height="95.9" style="fill:#dfe4e7"/><rect x="269.13" y="24.41" width="121.68" height="95.9" style="fill:none;stroke:#939598;stroke-miterlimit:10;stroke-width:2px"/><rect x="138.83" y="24.41" width="121.68" height="95.9" style="fill:#dfe4e7"/><rect x="138.83" y="24.41" width="121.68" height="95.9" style="fill:none;stroke:#939598;stroke-miterlimit:10;stroke-width:2px"/><rect x="8.62" y="24.41" width="121.68" height="95.9" style="fill:#dfe4e7"/><rect x="8.62" y="24.41" width="121.68" height="95.9" style="fill:none;stroke:#939598;stroke-miterlimit:10;stroke-width:2px"/><rect x="18.46" y="44.48" width="102.54" height="21.23" style="fill:#9dc65a"/><rect x="18.46" y="69.25" width="102.54" height="20.88" style="fill:#d5569f"/><rect x="148.44" y="44.48" width="102.54" height="21.23" style="fill:#9dc65a"/><rect x="148.44" y="69.25" width="102.54" height="20.88" style="fill:#d5569f"/><rect x="278.43" y="44.48" width="102.54" height="21.23" style="fill:#9dc65a"/><rect x="278.43" y="69.25" width="102.54" height="20.88" style="fill:#955da6"/><path d="M59.18,62.14c0-.87-.09-1.92-.08-2.84h0c-.22.83-.5,1.74-.79,2.59l-1,2.91h-.95l-.89-2.87a26.1,26.1,0,0,1-.68-2.63h0c0,.88-.06,2-.12,2.88l-.15,2.7H53.33l.45-6.73h1.61l.88,2.7c.24.8.46,1.6.62,2.35h0c.18-.74.41-1.56.67-2.35l.94-2.7h1.59l.39,6.73h-1.2Z" transform="translate(-8.45 -5.67)" style="fill:#231f20"/><path d="M62.63,62.79a1.34,1.34,0,0,0,1.51,1.27,3.62,3.62,0,0,0,1.34-.23l.18.85A4.3,4.3,0,0,1,64,65a2.3,2.3,0,0,1-2.5-2.47,2.4,2.4,0,0,1,2.38-2.61,2.11,2.11,0,0,1,2.09,2.37,2.89,2.89,0,0,1,0,.51Zm2.14-.86a1,1,0,0,0-1-1.18,1.21,1.21,0,0,0-1.13,1.18Z" transform="translate(-8.45 -5.67)" style="fill:#231f20"/><path d="M66.93,61.47c0-.57,0-1,0-1.45h1l.06.71h0a1.7,1.7,0,0,1,1.5-.82,1.39,1.39,0,0,1,1.35.9h0a2.1,2.1,0,0,1,.6-.62,1.7,1.7,0,0,1,1-.28c.8,0,1.62.55,1.62,2.11v2.86H72.9V62.19c0-.81-.28-1.28-.87-1.28a.91.91,0,0,0-.85.64,1.41,1.41,0,0,0-.07.41v2.92h-1.2V62.07c0-.68-.27-1.16-.84-1.16a1,1,0,0,0-.88.69,1.35,1.35,0,0,0-.06.41v2.87h-1.2Z" transform="translate(-8.45 -5.67)" style="fill:#231f20"/><path d="M79,64.74A3.52,3.52,0,0,1,77.6,65a2.34,2.34,0,0,1-2.5-2.49,2.5,2.5,0,0,1,2.7-2.59,3.24,3.24,0,0,1,1.19.22l-.22.93a2,2,0,0,0-.93-.19,1.58,1.58,0,0,0,0,3.15,2.37,2.37,0,0,0,1-.2Z" transform="translate(-8.45 -5.67)" style="fill:#231f20"/><path d="M82.66,64.88l-.09-.54h0a1.74,1.74,0,0,1-1.43.65,1.44,1.44,0,0,1-1.54-1.44c0-1.23,1.1-1.85,2.89-1.85v-.08c0-.32-.13-.85-1-.84a2.64,2.64,0,0,0-1.31.36l-.24-.8a3.57,3.57,0,0,1,1.76-.43,1.82,1.82,0,0,1,2,2.05v1.75a6.57,6.57,0,0,0,.08,1.17Zm-.17-2.38c-.87,0-1.7.17-1.7.91a.65.65,0,0,0,.71.7,1,1,0,0,0,1-.67,1.18,1.18,0,0,0,0-.27Z" transform="translate(-8.45 -5.67)" style="fill:#231f20"/><path d="M88.57,64.74a3.52,3.52,0,0,1-1.38.25,2.34,2.34,0,0,1-2.5-2.49,2.5,2.5,0,0,1,2.7-2.59,3.24,3.24,0,0,1,1.19.22l-.22.93a2,2,0,0,0-.93-.19,1.58,1.58,0,0,0,0,3.15,2.37,2.37,0,0,0,1-.2Z" transform="translate(-8.45 -5.67)" style="fill:#231f20"/><path d="M89.49,57.79h1.23v2.89h0a1.62,1.62,0,0,1,.61-.55,1.7,1.7,0,0,1,.84-.22c.83,0,1.7.55,1.7,2.11v2.86H92.66V62.15c0-.7-.25-1.24-.93-1.24a1,1,0,0,0-1,.69,1.11,1.11,0,0,0,0,.37v2.91H89.49Z" transform="translate(-8.45 -5.67)" style="fill:#231f20"/><path d="M96.07,62.79a1.34,1.34,0,0,0,1.51,1.27,3.62,3.62,0,0,0,1.34-.23l.18.85a4.34,4.34,0,0,1-1.7.31,2.3,2.3,0,0,1-2.5-2.47,2.4,2.4,0,0,1,2.38-2.61,2.11,2.11,0,0,1,2.09,2.37,2.89,2.89,0,0,1,0,.51Zm2.14-.86a1,1,0,0,0-1-1.18,1.21,1.21,0,0,0-1.13,1.18Z" transform="translate(-8.45 -5.67)" style="fill:#231f20"/><path d="M68,87.36a3.37,3.37,0,0,0,1.63.43c.78,0,1.22-.37,1.22-.92s-.34-.81-1.19-1.12c-1.12-.39-1.83-1-1.83-2s.93-1.94,2.39-1.94a3.51,3.51,0,0,1,1.61.34l-.29,1a2.94,2.94,0,0,0-1.35-.32c-.78,0-1.11.41-1.11.81s.39.76,1.29,1.1c1.17.45,1.73,1,1.73,2s-.82,2-2.55,2a3.88,3.88,0,0,1-1.83-.43Z" transform="translate(-8.45 -5.67)" style="fill:#fff"/><path d="M73.11,81.61h1.23V88.7H73.11Z" transform="translate(-8.45 -5.67)" style="fill:#fff"/><path d="M78.42,88.7l-.09-.54h0a1.74,1.74,0,0,1-1.43.65,1.44,1.44,0,0,1-1.54-1.44c0-1.23,1.1-1.85,2.89-1.85v-.08c0-.32-.13-.85-1-.84a2.64,2.64,0,0,0-1.31.36l-.24-.8a3.57,3.57,0,0,1,1.76-.43,1.82,1.82,0,0,1,2,2v1.75a6.57,6.57,0,0,0,.08,1.17Zm-.17-2.38c-.87,0-1.7.17-1.7.91a.65.65,0,0,0,.71.7,1,1,0,0,0,1-.67,1.18,1.18,0,0,0,0-.27Z" transform="translate(-8.45 -5.67)" style="fill:#fff"/><path d="M80.72,88.7c0-.32,0-.86,0-1.36V81.61H82v2.9h0a1.73,1.73,0,0,1,1.55-.78c1.19,0,2,1,2,2.46a2.33,2.33,0,0,1-2.21,2.62A1.66,1.66,0,0,1,81.85,88h0l0,.73Zm1.27-2A1.36,1.36,0,0,0,82,87a1.11,1.11,0,0,0,1.08.86c.78,0,1.24-.61,1.24-1.59s-.41-1.56-1.22-1.56A1.2,1.2,0,0,0,82,85.9Z" transform="translate(-8.45 -5.67)" style="fill:#fff"/><path d="M196.15,88.5a4.32,4.32,0,0,1-1.75.31A3.18,3.18,0,0,1,191,85.42a3.4,3.4,0,0,1,3.61-3.56,3.82,3.82,0,0,1,1.63.3l-.27,1a3.22,3.22,0,0,0-1.31-.26,2.24,2.24,0,0,0-2.36,2.47,2.2,2.2,0,0,0,2.34,2.43,3.65,3.65,0,0,0,1.34-.24Z" transform="translate(-8.45 -5.67)" style="fill:#fff"/><path d="M201.09,87.25c0,.57,0,1.06,0,1.45h-1.07L200,88h0a1.78,1.78,0,0,1-1.56.84c-.89,0-1.69-.53-1.69-2.12V83.84H198v2.65c0,.8.25,1.32.9,1.32a1,1,0,0,0,.94-.66,1,1,0,0,0,.07-.38V83.84h1.23Z" transform="translate(-8.45 -5.67)" style="fill:#fff"/><path d="M206,88.56a3.52,3.52,0,0,1-1.38.25,2.34,2.34,0,0,1-2.5-2.49,2.5,2.5,0,0,1,2.7-2.59A3.24,3.24,0,0,1,206,84l-.22.93a2,2,0,0,0-.93-.19,1.58,1.58,0,0,0,0,3.15,2.37,2.37,0,0,0,1-.2Z" transform="translate(-8.45 -5.67)" style="fill:#fff"/><path d="M208.15,86h0c.11-.19.25-.39.38-.57l1.19-1.56h1.48l-1.81,2,2.06,2.88H210l-1.4-2.15-.41.5V88.7h-1.23V81.61h1.23Z" transform="translate(-8.45 -5.67)" style="fill:#fff"/><path d="M216.37,86.22a2.41,2.41,0,0,1-2.5,2.59,2.34,2.34,0,0,1-2.43-2.5A2.4,2.4,0,0,1,214,83.73,2.33,2.33,0,0,1,216.37,86.22Zm-3.67.06c0,.93.47,1.64,1.21,1.64s1.2-.68,1.2-1.66c0-.76-.34-1.64-1.19-1.64S212.7,85.47,212.7,86.28Z" transform="translate(-8.45 -5.67)" style="fill:#fff"/><path d="M222,86.22a2.41,2.41,0,0,1-2.5,2.59,2.34,2.34,0,0,1-2.43-2.5,2.4,2.4,0,0,1,2.51-2.58A2.33,2.33,0,0,1,222,86.22Zm-3.67.06c0,.93.47,1.64,1.21,1.64s1.2-.68,1.2-1.66c0-.76-.34-1.64-1.19-1.64S218.36,85.47,218.36,86.28Z" transform="translate(-8.45 -5.67)" style="fill:#fff"/><path d="M189.34,62.14c0-.87-.09-1.92-.08-2.84h0c-.22.83-.5,1.74-.79,2.59l-1,2.91h-.95l-.89-2.87a26.1,26.1,0,0,1-.68-2.63h0c0,.88-.06,2-.12,2.88l-.15,2.7h-1.14l.45-6.73h1.61l.88,2.7c.24.8.46,1.6.62,2.35h0c.18-.74.41-1.56.67-2.35l.94-2.7h1.59l.39,6.73h-1.2Z" transform="translate(-8.45 -5.67)" style="fill:#231f20"/><path d="M192.79,62.79a1.34,1.34,0,0,0,1.51,1.27,3.62,3.62,0,0,0,1.34-.23l.18.85a4.3,4.3,0,0,1-1.7.31,2.3,2.3,0,0,1-2.5-2.47A2.4,2.4,0,0,1,194,59.91a2.11,2.11,0,0,1,2.09,2.37,2.89,2.89,0,0,1,0,.51Zm2.14-.86a1,1,0,0,0-1-1.18,1.21,1.21,0,0,0-1.13,1.18Z" transform="translate(-8.45 -5.67)" style="fill:#231f20"/><path d="M197.09,61.47c0-.57,0-1,0-1.45h1l.06.71h0a1.7,1.7,0,0,1,1.5-.82,1.39,1.39,0,0,1,1.35.9h0a2.1,2.1,0,0,1,.6-.62,1.7,1.7,0,0,1,1-.28c.8,0,1.62.55,1.62,2.11v2.86h-1.2V62.19c0-.81-.28-1.28-.87-1.28a.91.91,0,0,0-.85.64,1.41,1.41,0,0,0-.07.41v2.92h-1.2V62.07c0-.68-.27-1.16-.84-1.16a1,1,0,0,0-.88.69,1.35,1.35,0,0,0-.06.41v2.87h-1.2Z" transform="translate(-8.45 -5.67)" style="fill:#231f20"/><path d="M209.14,64.74a3.52,3.52,0,0,1-1.38.25,2.34,2.34,0,0,1-2.5-2.49,2.5,2.5,0,0,1,2.7-2.59,3.24,3.24,0,0,1,1.19.22l-.22.93a2,2,0,0,0-.93-.19A1.58,1.58,0,0,0,208,64a2.37,2.37,0,0,0,1-.2Z" transform="translate(-8.45 -5.67)" style="fill:#231f20"/><path d="M212.82,64.88l-.09-.54h0a1.74,1.74,0,0,1-1.43.65,1.44,1.44,0,0,1-1.54-1.44c0-1.23,1.1-1.85,2.89-1.85v-.08c0-.32-.13-.85-1-.84a2.64,2.64,0,0,0-1.31.36l-.24-.8a3.57,3.57,0,0,1,1.76-.43,1.82,1.82,0,0,1,2,2.05v1.75a6.57,6.57,0,0,0,.08,1.17Zm-.17-2.38c-.87,0-1.7.17-1.7.91a.65.65,0,0,0,.71.7,1,1,0,0,0,1-.67,1.18,1.18,0,0,0,0-.27Z" transform="translate(-8.45 -5.67)" style="fill:#231f20"/><path d="M218.73,64.74a3.52,3.52,0,0,1-1.38.25,2.34,2.34,0,0,1-2.5-2.49,2.5,2.5,0,0,1,2.7-2.59,3.24,3.24,0,0,1,1.19.22l-.22.93a2,2,0,0,0-.93-.19,1.58,1.58,0,0,0,0,3.15,2.37,2.37,0,0,0,1-.2Z" transform="translate(-8.45 -5.67)" style="fill:#231f20"/><path d="M219.65,57.79h1.23v2.89h0a1.62,1.62,0,0,1,.61-.55,1.7,1.7,0,0,1,.84-.22c.83,0,1.7.55,1.7,2.11v2.86h-1.23V62.15c0-.7-.25-1.24-.93-1.24a1,1,0,0,0-1,.69,1.11,1.11,0,0,0-.05.37v2.91h-1.23Z" transform="translate(-8.45 -5.67)" style="fill:#231f20"/><path d="M226.23,62.79a1.34,1.34,0,0,0,1.51,1.27,3.62,3.62,0,0,0,1.34-.23l.18.85a4.34,4.34,0,0,1-1.7.31,2.3,2.3,0,0,1-2.5-2.47,2.4,2.4,0,0,1,2.38-2.61,2.11,2.11,0,0,1,2.09,2.37,2.89,2.89,0,0,1,0,.51Zm2.14-.86a1,1,0,0,0-1-1.18,1.21,1.21,0,0,0-1.13,1.18Z" transform="translate(-8.45 -5.67)" style="fill:#231f20"/><path d="M207.12,20.69a4.27,4.27,0,0,0,2,.55c1,0,1.55-.47,1.55-1.16s-.43-1-1.51-1.42c-1.4-.49-2.3-1.25-2.3-2.47,0-1.39,1.17-2.44,3-2.44a4.58,4.58,0,0,1,2,.42l-.37,1.26a3.57,3.57,0,0,0-1.7-.41c-1,0-1.41.53-1.41,1s.5,1,1.63,1.39c1.48.56,2.19,1.3,2.19,2.53s-1,2.55-3.23,2.55a4.9,4.9,0,0,1-2.3-.54Z" transform="translate(-8.45 -5.67)" style="fill:#231f20"/><path d="M214.81,19.75a1.68,1.68,0,0,0,1.9,1.6,4.5,4.5,0,0,0,1.69-.29l.23,1.07a5.38,5.38,0,0,1-2.14.39,2.91,2.91,0,0,1-3.17-3.11,3,3,0,0,1,3-3.3c2,0,2.64,1.64,2.64,3a3.45,3.45,0,0,1-.05.66Zm2.7-1.09a1.32,1.32,0,0,0-1.28-1.49,1.51,1.51,0,0,0-1.42,1.49Z" transform="translate(-8.45 -5.67)" style="fill:#231f20"/><path d="M220.22,18.22c0-.82,0-1.43-.05-2h1.35l.06,1.16h0a1.83,1.83,0,0,1,1.68-1.3,1.46,1.46,0,0,1,.37,0V17.6a2.92,2.92,0,0,0-.46,0,1.37,1.37,0,0,0-1.39,1.17,2.35,2.35,0,0,0,0,.47v3.19h-1.56Z" transform="translate(-8.45 -5.67)" style="fill:#231f20"/><path d="M226.67,16.25l1,3.12a14.74,14.74,0,0,1,.42,1.53h0c.11-.51.25-1,.42-1.53l1-3.12h1.63l-2.34,6.14h-1.53L225,16.25Z" transform="translate(-8.45 -5.67)" style="fill:#231f20"/><path d="M233.74,14.53a.83.83,0,0,1-.89.83.84.84,0,1,1,.89-.83Zm-1.65,7.86V16.25h1.56v6.14Z" transform="translate(-8.45 -5.67)" style="fill:#231f20"/><path d="M239.83,22.2a4.23,4.23,0,0,1-1.73.32,3,3,0,0,1-3.17-3.14,3.17,3.17,0,0,1,3.42-3.27,4.18,4.18,0,0,1,1.5.28l-.28,1.17a2.63,2.63,0,0,0-1.17-.24,1.84,1.84,0,0,0-1.89,2,1.83,1.83,0,0,0,1.89,2,3,3,0,0,0,1.22-.24Z" transform="translate(-8.45 -5.67)" style="fill:#231f20"/><path d="M241.85,19.75a1.68,1.68,0,0,0,1.9,1.6,4.46,4.46,0,0,0,1.69-.29l.23,1.07a5.38,5.38,0,0,1-2.14.39,2.91,2.91,0,0,1-3.17-3.11,3,3,0,0,1,3-3.3c2,0,2.65,1.64,2.65,3a3.28,3.28,0,0,1-.06.66Zm2.7-1.09a1.32,1.32,0,0,0-1.28-1.49,1.52,1.52,0,0,0-1.42,1.49Z" transform="translate(-8.45 -5.67)" style="fill:#231f20"/><path d="M247.19,21a3.42,3.42,0,0,0,1.57.45c.68,0,1-.29,1-.69s-.26-.63-1-.9c-1.2-.41-1.7-1.06-1.7-1.79,0-1.08.9-1.92,2.33-1.92a3.64,3.64,0,0,1,1.63.36l-.31,1.09a2.82,2.82,0,0,0-1.3-.35c-.55,0-.86.27-.86.65s.3.58,1.08.86c1.11.4,1.63,1,1.64,1.87,0,1.12-.88,1.93-2.5,1.93a4,4,0,0,1-1.87-.43Z" transform="translate(-8.45 -5.67)" style="fill:#231f20"/><rect x="1" y="152.91" width="142.67" height="78.99" style="fill:#dfe4e7"/><rect x="1" y="152.91" width="142.67" height="78.99" style="fill:none;stroke:#955da6;stroke-miterlimit:10;stroke-width:2px"/><rect x="6.84" y="179.24" width="62.91" height="20.03" style="fill:#955da6"/><path d="M32.74,198l3.45-5v0H33v-1h4.74v.72l-3.4,5v0h3.45v1H32.74Z" transform="translate(-8.45 -5.67)" style="fill:#fff"/><path d="M40.11,192.43a.69.69,0,1,1-.68-.67A.65.65,0,0,1,40.11,192.43Zm-1.3,6.22v-4.86H40v4.86Z" transform="translate(-8.45 -5.67)" style="fill:#fff"/><path d="M41.37,195.4c0-.63,0-1.16,0-1.61h1.08l.06.74h0a1.91,1.91,0,0,1,1.67-.85,2.2,2.2,0,0,1,2,2.47A2.31,2.31,0,0,1,44,198.76a1.58,1.58,0,0,1-1.37-.65h0v2.52H41.37Zm1.23,1.22a1.76,1.76,0,0,0,0,.33,1.12,1.12,0,0,0,1.08.86c.78,0,1.24-.65,1.24-1.6s-.42-1.56-1.21-1.56a1.16,1.16,0,0,0-1.1.91,1.55,1.55,0,0,0,0,.31Z" transform="translate(-8.45 -5.67)" style="fill:#fff"/><path d="M47.22,191.56h1.23v7.09H47.22Z" transform="translate(-8.45 -5.67)" style="fill:#fff"/><path d="M51.09,192.43a.69.69,0,1,1-.68-.67A.65.65,0,0,1,51.09,192.43Zm-1.3,6.22v-4.86H51v4.86Z" transform="translate(-8.45 -5.67)" style="fill:#fff"/><path d="M52.29,197.52a2.67,2.67,0,0,0,1.24.36c.54,0,.79-.23.79-.55s-.21-.5-.8-.71c-1-.33-1.35-.84-1.35-1.42,0-.86.71-1.52,1.85-1.52a2.8,2.8,0,0,1,1.29.29l-.25.86a2.22,2.22,0,0,0-1-.28c-.44,0-.69.22-.69.52s.24.45.85.68c.89.31,1.3.76,1.3,1.48,0,.89-.69,1.53-2,1.53a3.19,3.19,0,0,1-1.49-.34Z" transform="translate(-8.45 -5.67)" style="fill:#fff"/><path d="M57.93,192.39v1.4H59.1v.91H57.93v2.15c0,.6.16.9.63.9a1.9,1.9,0,0,0,.48-.05l0,.93a2.72,2.72,0,0,1-.9.13,1.44,1.44,0,0,1-1-.4,1.92,1.92,0,0,1-.39-1.37V194.7H56v-.91h.69v-1.1Z" transform="translate(-8.45 -5.67)" style="fill:#fff"/><rect x="74.92" y="179.24" width="62.91" height="20.03" style="fill:#955da6"/><path d="M101.19,197.31a3.41,3.41,0,0,0,1.63.43c.78,0,1.22-.37,1.22-.92s-.34-.81-1.19-1.12c-1.11-.39-1.82-1-1.82-1.95,0-1.11.92-1.94,2.38-1.94a3.67,3.67,0,0,1,1.61.33l-.29,1a2.87,2.87,0,0,0-1.35-.32c-.78,0-1.11.41-1.11.81s.39.76,1.29,1.1c1.17.45,1.73,1,1.73,2s-.81,2-2.55,2a3.87,3.87,0,0,1-1.82-.43Z" transform="translate(-8.45 -5.67)" style="fill:#fff"/><path d="M109.16,198.65l-.08-.54h0a1.81,1.81,0,0,1-1.44.65,1.43,1.43,0,0,1-1.53-1.44c0-1.23,1.09-1.85,2.88-1.85v-.08c0-.32-.12-.85-1-.85a2.58,2.58,0,0,0-1.31.37l-.25-.8a3.58,3.58,0,0,1,1.77-.43,1.81,1.81,0,0,1,2,2v1.75a7.67,7.67,0,0,0,.08,1.17Zm-.16-2.38c-.87,0-1.7.17-1.7.91a.65.65,0,0,0,.7.7,1,1,0,0,0,1-.67.84.84,0,0,0,0-.27Z" transform="translate(-8.45 -5.67)" style="fill:#fff"/><path d="M111.5,195.35c0-.65,0-1.13,0-1.56h1.07l0,.92h0a1.45,1.45,0,0,1,1.33-1,1.32,1.32,0,0,1,.29,0v1.16a1.86,1.86,0,0,0-.36,0,1.09,1.09,0,0,0-1.11.93,2.13,2.13,0,0,0,0,.37v2.52H111.5Z" transform="translate(-8.45 -5.67)" style="fill:#fff"/><path d="M115.07,195.35c0-.65,0-1.13,0-1.56h1.07l0,.92h0a1.45,1.45,0,0,1,1.33-1,1.32,1.32,0,0,1,.29,0v1.16a1.94,1.94,0,0,0-.36,0,1.09,1.09,0,0,0-1.11.93,2.13,2.13,0,0,0,0,.37v2.52h-1.23Z" transform="translate(-8.45 -5.67)" style="fill:#fff"/><path d="M121.28,198.65l-.09-.54h0a1.81,1.81,0,0,1-1.44.65,1.43,1.43,0,0,1-1.53-1.44c0-1.23,1.09-1.85,2.88-1.85v-.08c0-.32-.12-.85-1-.85a2.58,2.58,0,0,0-1.31.37l-.25-.8a3.58,3.58,0,0,1,1.77-.43,1.81,1.81,0,0,1,2,2v1.75a6.57,6.57,0,0,0,.08,1.17Zm-.16-2.38c-.87,0-1.7.17-1.7.91a.65.65,0,0,0,.7.7,1,1,0,0,0,1-.67.84.84,0,0,0,0-.27Z" transform="translate(-8.45 -5.67)" style="fill:#fff"/><path d="M124.09,193.79l.88,2.61c.09.3.2.67.27.94h0c.08-.27.17-.64.26-1l.76-2.6h1.31l-1.22,3.32a7.46,7.46,0,0,1-1.69,3.13,2.52,2.52,0,0,1-1.29.62l-.28-1a2.13,2.13,0,0,0,.71-.33,2.19,2.19,0,0,0,.68-.78.46.46,0,0,0,.08-.22.7.7,0,0,0-.07-.24l-1.79-4.46Z" transform="translate(-8.45 -5.67)" style="fill:#fff"/><rect x="6.84" y="203.35" width="62.91" height="20.03" style="fill:#955da6"/><path d="M31.31,216.12a10.35,10.35,0,0,1,1.8-.15,3.29,3.29,0,0,1,1.93.43,1.45,1.45,0,0,1,.69,1.27,1.54,1.54,0,0,1-1.12,1.45v0A1.7,1.7,0,0,1,36,220.82a1.8,1.8,0,0,1-.64,1.39,3.81,3.81,0,0,1-2.5.62,12.11,12.11,0,0,1-1.52-.09Zm1.22,2.66h.63c.86,0,1.33-.4,1.33-1s-.48-.93-1.25-.93a3.25,3.25,0,0,0-.71.06Zm0,3.09a3.91,3.91,0,0,0,.65,0c.79,0,1.5-.29,1.5-1.12s-.69-1.11-1.53-1.11h-.62Z" transform="translate(-8.45 -5.67)" style="fill:#fff"/><path d="M38.34,216.53a.69.69,0,1,1-.68-.66A.64.64,0,0,1,38.34,216.53ZM37,222.76V217.9h1.23v4.86Z" transform="translate(-8.45 -5.67)" style="fill:#fff"/><path d="M41,216.5v1.4h1.17v.91H41V221c0,.6.16.9.63.9a1.82,1.82,0,0,0,.48-.06l0,.94a2.72,2.72,0,0,1-.9.13,1.44,1.44,0,0,1-1.05-.4,1.92,1.92,0,0,1-.39-1.37v-2.29h-.69v-.91h.69v-1.11Z" transform="translate(-8.45 -5.67)" style="fill:#fff"/><path d="M43.11,219.34c0-.56,0-1,0-1.44h1l.06.71h0a1.65,1.65,0,0,1,1.49-.82,1.38,1.38,0,0,1,1.35.89h0a2.06,2.06,0,0,1,.6-.61,1.73,1.73,0,0,1,1-.28c.8,0,1.62.55,1.62,2.11v2.86h-1.2v-2.69c0-.81-.28-1.29-.87-1.29a.93.93,0,0,0-.85.65,1.4,1.4,0,0,0-.06.41v2.92H46.1V220c0-.69-.28-1.17-.84-1.17a1,1,0,0,0-.89.7,1.35,1.35,0,0,0-.06.41v2.87h-1.2Z" transform="translate(-8.45 -5.67)" style="fill:#fff"/><path d="M54.33,222.76l-.09-.54h0a1.77,1.77,0,0,1-1.43.65,1.43,1.43,0,0,1-1.53-1.45c0-1.22,1.09-1.84,2.88-1.84v-.08c0-.32-.12-.85-1-.85a2.57,2.57,0,0,0-1.3.37l-.25-.8a3.58,3.58,0,0,1,1.77-.43,1.81,1.81,0,0,1,2,2.05v1.75a6.57,6.57,0,0,0,.08,1.17Zm-.17-2.38c-.86,0-1.69.17-1.69.91a.65.65,0,0,0,.7.7,1,1,0,0,0,1-.67.83.83,0,0,0,0-.27Z" transform="translate(-8.45 -5.67)" style="fill:#fff"/><path d="M56.67,219.51c0-.63,0-1.16,0-1.61h1.08l.06.74h0a1.88,1.88,0,0,1,1.67-.85,2.2,2.2,0,0,1,2,2.47,2.31,2.31,0,0,1-2.21,2.61,1.56,1.56,0,0,1-1.37-.65h0v2.52H56.67Zm1.23,1.22a1.76,1.76,0,0,0,0,.33,1.12,1.12,0,0,0,1.08.86c.78,0,1.24-.65,1.24-1.6s-.42-1.56-1.21-1.56a1.16,1.16,0,0,0-1.1.91,1.55,1.55,0,0,0,0,.31Z" transform="translate(-8.45 -5.67)" style="fill:#fff"/><path d="M412.77,74.72a1.63,1.63,0,0,1,1.76-1.78,1.85,1.85,0,0,1,1.34.46,1.81,1.81,0,0,1-1.34,3.11,1.68,1.68,0,0,1-1.28-.51A1.77,1.77,0,0,1,412.77,74.72Zm6.72,0a1.63,1.63,0,0,1,1.77-1.78,1.82,1.82,0,0,1,1.33.46,2,2,0,0,1,0,2.6,1.73,1.73,0,0,1-1.33.51A1.69,1.69,0,0,1,420,76,1.77,1.77,0,0,1,419.49,74.72Zm6.78,0A1.63,1.63,0,0,1,428,72.94a1.85,1.85,0,0,1,1.34.46A1.81,1.81,0,0,1,428,76.51a1.68,1.68,0,0,1-1.28-.51A1.77,1.77,0,0,1,426.27,74.72Z" transform="translate(-8.45 -5.67)" style="fill:#58595b"/><path d="M38.84,167.79a16.26,16.26,0,0,1,2.48-.18,5.21,5.21,0,0,1,3.47,1,3.84,3.84,0,0,1,1.33,3.13,4.4,4.4,0,0,1-1.33,3.39,5.73,5.73,0,0,1-3.85,1.15,16,16,0,0,1-2.1-.11ZM40.4,175a7,7,0,0,0,.86,0,2.92,2.92,0,0,0,3.22-3.26,2.71,2.71,0,0,0-3-3,5,5,0,0,0-1.05.09Z" transform="translate(-8.45 -5.67)" style="fill:#955da6"/><path d="M50.85,176.18l-.11-.68h0a2.25,2.25,0,0,1-1.81.82A1.82,1.82,0,0,1,47,174.49c0-1.55,1.38-2.33,3.64-2.32v-.1c0-.41-.16-1.08-1.25-1.08a3.32,3.32,0,0,0-1.65.46l-.31-1a4.49,4.49,0,0,1,2.23-.54,2.29,2.29,0,0,1,2.53,2.59v2.21a8.89,8.89,0,0,0,.1,1.48Zm-.21-3c-1.09,0-2.14.22-2.14,1.15a.82.82,0,0,0,.88.89,1.27,1.27,0,0,0,1.22-.85,1.32,1.32,0,0,0,0-.34Z" transform="translate(-8.45 -5.67)" style="fill:#955da6"/><path d="M55.5,168.28V170H57v1.16H55.5v2.71c0,.75.2,1.13.79,1.13a2.26,2.26,0,0,0,.61-.07l0,1.18a3.39,3.39,0,0,1-1.13.16,1.82,1.82,0,0,1-1.34-.5,2.49,2.49,0,0,1-.48-1.73V171.2H53.1V170H54v-1.39Z" transform="translate(-8.45 -5.67)" style="fill:#955da6"/><path d="M61.73,176.18l-.1-.68h0a2.26,2.26,0,0,1-1.81.82,1.82,1.82,0,0,1-1.94-1.83c0-1.55,1.38-2.33,3.65-2.32v-.1c0-.41-.16-1.08-1.25-1.08a3.29,3.29,0,0,0-1.65.46l-.31-1a4.46,4.46,0,0,1,2.23-.54A2.29,2.29,0,0,1,63,172.49v2.21a10.28,10.28,0,0,0,.09,1.48Zm-.2-3c-1.1,0-2.15.22-2.15,1.15a.82.82,0,0,0,.89.89,1.26,1.26,0,0,0,1.21-.85,1,1,0,0,0,.05-.34Z" transform="translate(-8.45 -5.67)" style="fill:#955da6"/><path d="M67.32,174.49a4.27,4.27,0,0,0,2.05.54c1,0,1.55-.47,1.55-1.16s-.43-1-1.51-1.41c-1.4-.5-2.3-1.26-2.3-2.47,0-1.4,1.16-2.45,3-2.45a4.58,4.58,0,0,1,2,.42l-.37,1.26a3.69,3.69,0,0,0-1.7-.41c-1,0-1.41.53-1.41,1,0,.65.5,1,1.63,1.39,1.48.56,2.19,1.31,2.19,2.53,0,1.37-1,2.55-3.23,2.55a4.9,4.9,0,0,1-2.3-.54Z" transform="translate(-8.45 -5.67)" style="fill:#955da6"/><path d="M75.38,168.28V170h1.48v1.16H75.38v2.71c0,.75.2,1.13.79,1.13a2.26,2.26,0,0,0,.61-.07l0,1.18a3.44,3.44,0,0,1-1.13.16,1.82,1.82,0,0,1-1.34-.5,2.49,2.49,0,0,1-.48-1.73V171.2H73V170h.88v-1.39Z" transform="translate(-8.45 -5.67)" style="fill:#955da6"/><path d="M78,172c0-.82,0-1.42,0-2h1.34l.06,1.17h0a1.84,1.84,0,0,1,1.68-1.31,1.42,1.42,0,0,1,.37,0v1.47a2,2,0,0,0-.46-.05,1.37,1.37,0,0,0-1.39,1.18,2.23,2.23,0,0,0,0,.47v3.18H78Z" transform="translate(-8.45 -5.67)" style="fill:#955da6"/><path d="M88,174.34c0,.73,0,1.34.05,1.84H86.68l-.07-.93h0a2.24,2.24,0,0,1-2,1.07c-1.12,0-2.14-.67-2.14-2.68V170H84v3.34c0,1,.32,1.67,1.14,1.67a1.28,1.28,0,0,0,1.19-.83,1.38,1.38,0,0,0,.08-.48V170H88Z" transform="translate(-8.45 -5.67)" style="fill:#955da6"/><path d="M94.18,176a4.5,4.5,0,0,1-1.74.31,3,3,0,0,1-3.16-3.14,3.16,3.16,0,0,1,3.41-3.27,4.09,4.09,0,0,1,1.5.28l-.27,1.17a2.65,2.65,0,0,0-1.18-.24,2,2,0,0,0,0,4,3,3,0,0,0,1.22-.25Z" transform="translate(-8.45 -5.67)" style="fill:#955da6"/><path d="M97.49,168.28V170H99v1.16H97.49v2.71c0,.75.2,1.13.79,1.13a2.26,2.26,0,0,0,.61-.07l0,1.18a3.44,3.44,0,0,1-1.13.16,1.82,1.82,0,0,1-1.34-.5,2.49,2.49,0,0,1-.48-1.73V171.2h-.88V170H96v-1.39Z" transform="translate(-8.45 -5.67)" style="fill:#955da6"/><path d="M105.63,174.34c0,.73,0,1.34.05,1.84h-1.35l-.08-.93h0a2.24,2.24,0,0,1-2,1.07c-1.12,0-2.14-.67-2.14-2.68V170h1.55v3.34c0,1,.33,1.67,1.15,1.67a1.3,1.3,0,0,0,1.19-.83,1.38,1.38,0,0,0,.08-.48V170h1.55Z" transform="translate(-8.45 -5.67)" style="fill:#955da6"/><path d="M107.31,172c0-.82,0-1.42,0-2h1.35l.06,1.17h0a1.83,1.83,0,0,1,1.68-1.31,1.46,1.46,0,0,1,.37,0v1.47a2,2,0,0,0-.46-.05,1.37,1.37,0,0,0-1.39,1.18,2.23,2.23,0,0,0,0,.47v3.18h-1.56Z" transform="translate(-8.45 -5.67)" style="fill:#955da6"/><path d="M112.61,173.54a1.68,1.68,0,0,0,1.9,1.6,4.5,4.5,0,0,0,1.69-.29l.23,1.07a5.43,5.43,0,0,1-2.15.39,2.91,2.91,0,0,1-3.16-3.11,3,3,0,0,1,3-3.3c2,0,2.64,1.64,2.64,3a3.26,3.26,0,0,1,0,.65Zm2.7-1.08A1.32,1.32,0,0,0,114,171a1.51,1.51,0,0,0-1.42,1.5Z" transform="translate(-8.45 -5.67)" style="fill:#955da6"/><rect x="1" y="342.13" width="445.4" height="100.06" style="fill:#dfe4e7"/><rect x="1" y="342.13" width="445.4" height="100.06" style="fill:none;stroke:#00a1e4;stroke-miterlimit:10;stroke-width:2px"/><rect x="1" y="239.02" width="142.67" height="78.03" style="fill:#dfe4e7"/><rect x="1" y="239.02" width="142.67" height="78.03" style="fill:none;stroke:#d5569f;stroke-miterlimit:10;stroke-width:2px"/><rect x="7.77" y="265.34" width="62.91" height="20.03" style="fill:#d5569f"/><path d="M38.48,283.42a3.41,3.41,0,0,0,1.63.43c.78,0,1.22-.37,1.22-.92s-.34-.81-1.19-1.12c-1.12-.4-1.83-1-1.83-2s.93-1.93,2.39-1.93a3.53,3.53,0,0,1,1.61.33l-.29,1a3,3,0,0,0-1.35-.32c-.78,0-1.11.42-1.11.81s.39.76,1.29,1.11c1.17.44,1.73,1,1.73,2s-.81,2-2.55,2a3.94,3.94,0,0,1-1.82-.42Z" transform="translate(-8.45 -5.67)" style="fill:#fff"/><path d="M43.62,277.66h1.23v7.1H43.62Z" transform="translate(-8.45 -5.67)" style="fill:#fff"/><path d="M48.93,284.76l-.09-.54h0a1.77,1.77,0,0,1-1.43.65,1.44,1.44,0,0,1-1.53-1.45c0-1.23,1.09-1.85,2.88-1.84v-.08c0-.32-.13-.85-1-.85a2.57,2.57,0,0,0-1.3.36l-.25-.8a3.58,3.58,0,0,1,1.77-.43,1.81,1.81,0,0,1,2,2.05v1.76a6.57,6.57,0,0,0,.08,1.17Zm-.17-2.38c-.86,0-1.69.17-1.69.91a.65.65,0,0,0,.7.7,1,1,0,0,0,1-.67.86.86,0,0,0,0-.27Z" transform="translate(-8.45 -5.67)" style="fill:#fff"/><path d="M51.23,284.76c0-.33,0-.87,0-1.37v-5.73H52.5v2.9h0a1.76,1.76,0,0,1,1.55-.78c1.19,0,2,1,2,2.47a2.33,2.33,0,0,1-2.21,2.62,1.66,1.66,0,0,1-1.53-.84h0l-.06.73Zm1.27-2a1.23,1.23,0,0,0,0,.29,1.13,1.13,0,0,0,1.09.87c.77,0,1.23-.62,1.23-1.6s-.41-1.56-1.22-1.56a1.14,1.14,0,0,0-1.09.9,1.47,1.47,0,0,0,0,.32Z" transform="translate(-8.45 -5.67)" style="fill:#fff"/><rect x="75.85" y="265.34" width="62.91" height="20.03" style="fill:#d5569f"/><path d="M104.58,284.56a4.46,4.46,0,0,1-1.75.3,3.18,3.18,0,0,1-3.44-3.39,3.4,3.4,0,0,1,3.61-3.55,3.86,3.86,0,0,1,1.63.29l-.27,1a3,3,0,0,0-1.31-.27,2.24,2.24,0,0,0-2.36,2.48,2.2,2.2,0,0,0,2.34,2.42,3.75,3.75,0,0,0,1.35-.24Z" transform="translate(-8.45 -5.67)" style="fill:#fff"/><path d="M109.52,283.3c0,.58,0,1.06,0,1.46h-1.07l-.06-.74h0a1.78,1.78,0,0,1-1.56.85c-.88,0-1.69-.53-1.69-2.12v-2.86h1.23v2.65c0,.81.25,1.33.91,1.33a1,1,0,0,0,.94-.66,1.12,1.12,0,0,0,.06-.38v-2.94h1.23Z" transform="translate(-8.45 -5.67)" style="fill:#fff"/><path d="M114.43,284.61a3.46,3.46,0,0,1-1.37.25,2.34,2.34,0,0,1-2.51-2.49,2.5,2.5,0,0,1,2.71-2.58,3,3,0,0,1,1.18.22l-.21.92a2.22,2.22,0,0,0-.94-.19,1.58,1.58,0,0,0,0,3.15,2.48,2.48,0,0,0,1-.19Z" transform="translate(-8.45 -5.67)" style="fill:#fff"/><path d="M116.58,282h0c.11-.19.26-.4.38-.57l1.19-1.57h1.48l-1.81,2,2.06,2.88h-1.51l-1.4-2.15-.41.49v1.66h-1.23v-7.1h1.23Z" transform="translate(-8.45 -5.67)" style="fill:#fff"/><path d="M124.79,282.28a2.41,2.41,0,0,1-2.5,2.59,2.35,2.35,0,0,1-2.43-2.51,2.41,2.41,0,0,1,2.52-2.58A2.33,2.33,0,0,1,124.79,282.28Zm-3.67.05c0,.94.47,1.64,1.21,1.64s1.2-.68,1.2-1.66c0-.76-.34-1.63-1.19-1.63S121.12,281.52,121.12,282.33Z" transform="translate(-8.45 -5.67)" style="fill:#fff"/><path d="M130.45,282.28a2.41,2.41,0,0,1-2.5,2.59,2.35,2.35,0,0,1-2.43-2.51,2.41,2.41,0,0,1,2.52-2.58A2.33,2.33,0,0,1,130.45,282.28Zm-3.67.05c0,.94.47,1.64,1.21,1.64s1.2-.68,1.2-1.66c0-.76-.34-1.63-1.19-1.63S126.78,281.52,126.78,282.33Z" transform="translate(-8.45 -5.67)" style="fill:#fff"/><rect x="7.77" y="289.45" width="130.99" height="20.03" style="fill:#00a1e4"/><path d="M61,302.22a12.42,12.42,0,0,1,2-.14,4.07,4.07,0,0,1,2.74.78,3,3,0,0,1,1.06,2.48,3.49,3.49,0,0,1-1,2.68,4.57,4.57,0,0,1-3.05.91,11.7,11.7,0,0,1-1.66-.09Zm1.23,5.71a4.58,4.58,0,0,0,.68,0,2.31,2.31,0,0,0,2.55-2.58A2.14,2.14,0,0,0,63,303a3.89,3.89,0,0,0-.83.07Z" transform="translate(-8.45 -5.67)" style="fill:#fff"/><path d="M70.47,308.87l-.08-.54h0a1.81,1.81,0,0,1-1.44.65,1.45,1.45,0,0,1-1.53-1.45c0-1.23,1.09-1.85,2.88-1.84v-.08c0-.32-.12-.85-1-.85a2.58,2.58,0,0,0-1.31.36l-.24-.8a3.51,3.51,0,0,1,1.76-.43,1.81,1.81,0,0,1,2,2.05v1.76a7.67,7.67,0,0,0,.08,1.17Zm-.16-2.39c-.87,0-1.7.18-1.7.92a.65.65,0,0,0,.7.7,1,1,0,0,0,1-.68.78.78,0,0,0,0-.26Z" transform="translate(-8.45 -5.67)" style="fill:#fff"/><path d="M74.16,302.61V304h1.17v.92H74.16v2.15c0,.59.16.89.63.89a1.9,1.9,0,0,0,.48,0l0,.94a2.7,2.7,0,0,1-.89.12,1.42,1.42,0,0,1-1.06-.4,2,2,0,0,1-.38-1.36v-2.29h-.7V304H73v-1.1Z" transform="translate(-8.45 -5.67)" style="fill:#fff"/><path d="M79.09,308.87l-.08-.54h0a1.81,1.81,0,0,1-1.44.65A1.45,1.45,0,0,1,76,307.53c0-1.23,1.09-1.85,2.88-1.84v-.08c0-.32-.12-.85-1-.85a2.58,2.58,0,0,0-1.31.36l-.25-.8a3.58,3.58,0,0,1,1.77-.43,1.81,1.81,0,0,1,2,2.05v1.76a7.67,7.67,0,0,0,.08,1.17Zm-.16-2.39c-.87,0-1.7.18-1.7.92a.65.65,0,0,0,.7.7,1,1,0,0,0,1-.68.78.78,0,0,0,0-.26Z" transform="translate(-8.45 -5.67)" style="fill:#fff"/><path d="M81.43,305.61c0-.63,0-1.15,0-1.61h1.08l.06.75h0a1.9,1.9,0,0,1,1.67-.86,2.21,2.21,0,0,1,2,2.48A2.31,2.31,0,0,1,84.05,309a1.6,1.6,0,0,1-1.37-.65h0v2.52H81.43Zm1.23,1.22a1.27,1.27,0,0,0,0,.34,1.1,1.1,0,0,0,1.08.86c.78,0,1.24-.65,1.24-1.61s-.42-1.56-1.21-1.56a1.15,1.15,0,0,0-1.1.91,1.12,1.12,0,0,0,0,.31Z" transform="translate(-8.45 -5.67)" style="fill:#fff"/><path d="M91.93,306.39a2.41,2.41,0,0,1-2.5,2.59A2.35,2.35,0,0,1,87,306.47a2.4,2.4,0,0,1,2.52-2.58A2.34,2.34,0,0,1,91.93,306.39Zm-3.67.05c0,.94.46,1.64,1.21,1.64s1.19-.68,1.19-1.66c0-.76-.34-1.63-1.19-1.63S88.26,305.63,88.26,306.44Z" transform="translate(-8.45 -5.67)" style="fill:#fff"/><path d="M97.59,306.39a2.41,2.41,0,0,1-2.5,2.59,2.35,2.35,0,0,1-2.44-2.51,2.4,2.4,0,0,1,2.52-2.58A2.34,2.34,0,0,1,97.59,306.39Zm-3.67.05c0,.94.46,1.64,1.21,1.64s1.19-.68,1.19-1.66c0-.76-.34-1.63-1.19-1.63S93.92,305.63,93.92,306.44Z" transform="translate(-8.45 -5.67)" style="fill:#fff"/><path d="M98.6,301.77h1.23v7.1H98.6Z" transform="translate(-8.45 -5.67)" style="fill:#fff"/><path d="M50.67,252.9a16.26,16.26,0,0,1,2.48-.18,5.18,5.18,0,0,1,3.46,1A3.79,3.79,0,0,1,58,256.83a4.38,4.38,0,0,1-1.33,3.38,5.7,5.7,0,0,1-3.85,1.16,18,18,0,0,1-2.1-.11Zm1.55,7.2a5.64,5.64,0,0,0,.87,0,2.92,2.92,0,0,0,3.22-3.26,2.72,2.72,0,0,0-3-3,6,6,0,0,0-1.06.09Z" transform="translate(-8.45 -5.67)" style="fill:#d5569f"/><path d="M62.68,261.29l-.11-.69h0a2.22,2.22,0,0,1-1.81.83,1.83,1.83,0,0,1-1.94-1.83c0-1.55,1.39-2.34,3.65-2.33v-.1c0-.4-.16-1.07-1.25-1.07a3.22,3.22,0,0,0-1.65.46l-.31-1a4.48,4.48,0,0,1,2.23-.55A2.29,2.29,0,0,1,64,257.59v2.22a8.89,8.89,0,0,0,.1,1.48Zm-.21-3c-1.1,0-2.14.21-2.14,1.15a.82.82,0,0,0,.88.89,1.28,1.28,0,0,0,1.22-.86,1.24,1.24,0,0,0,0-.33Z" transform="translate(-8.45 -5.67)" style="fill:#d5569f"/><path d="M67.33,253.38v1.76h1.48v1.16H67.33V259c0,.75.2,1.14.79,1.14a2.76,2.76,0,0,0,.61-.07l0,1.18a3.44,3.44,0,0,1-1.13.16,1.78,1.78,0,0,1-1.34-.51,2.46,2.46,0,0,1-.48-1.72V256.3h-.88v-1.16h.88v-1.39Z" transform="translate(-8.45 -5.67)" style="fill:#d5569f"/><path d="M73.56,261.29l-.11-.69h0a2.25,2.25,0,0,1-1.81.83,1.83,1.83,0,0,1-1.94-1.83c0-1.55,1.38-2.34,3.64-2.33v-.1c0-.4-.16-1.07-1.24-1.07a3.23,3.23,0,0,0-1.66.46l-.3-1a4.44,4.44,0,0,1,2.22-.55,2.3,2.3,0,0,1,2.54,2.59v2.22a9,9,0,0,0,.09,1.48Zm-.21-3c-1.09,0-2.14.21-2.14,1.15a.82.82,0,0,0,.89.89,1.27,1.27,0,0,0,1.21-.86,1.24,1.24,0,0,0,0-.33Z" transform="translate(-8.45 -5.67)" style="fill:#d5569f"/><path d="M76.44,259.86a3.41,3.41,0,0,0,1.56.45c.69,0,1-.29,1-.69s-.25-.63-1-.9c-1.2-.41-1.7-1.07-1.69-1.79,0-1.08.89-1.93,2.33-1.93a3.54,3.54,0,0,1,1.63.37l-.31,1.09a2.9,2.9,0,0,0-1.3-.35c-.55,0-.86.27-.86.65s.3.58,1.07.86c1.12.4,1.64,1,1.64,1.87,0,1.12-.87,1.93-2.49,1.93a4,4,0,0,1-1.88-.43Z" transform="translate(-8.45 -5.67)" style="fill:#d5569f"/><path d="M83.55,253.38v1.76H85v1.16H83.55V259c0,.75.2,1.14.79,1.14a2.76,2.76,0,0,0,.61-.07l0,1.18a3.44,3.44,0,0,1-1.13.16,1.78,1.78,0,0,1-1.34-.51,2.46,2.46,0,0,1-.48-1.72V256.3h-.88v-1.16H82v-1.39Z" transform="translate(-8.45 -5.67)" style="fill:#d5569f"/><path d="M92,258.15a3.05,3.05,0,0,1-3.16,3.28,3,3,0,0,1-3.07-3.17A3,3,0,0,1,88.91,255,3,3,0,0,1,92,258.15Zm-4.63.07c0,1.18.59,2.08,1.52,2.08s1.51-.86,1.51-2.1c0-1-.42-2.07-1.5-2.07S87.33,257.2,87.33,258.22Z" transform="translate(-8.45 -5.67)" style="fill:#d5569f"/><path d="M93.24,257.12c0-.82,0-1.43-.06-2h1.35l.06,1.17h0A1.84,1.84,0,0,1,96.31,255a1.45,1.45,0,0,1,.37,0v1.46a2.07,2.07,0,0,0-.46,0,1.37,1.37,0,0,0-1.39,1.17,2.29,2.29,0,0,0,0,.47v3.19H93.24Z" transform="translate(-8.45 -5.67)" style="fill:#d5569f"/><path d="M98.53,258.65a1.67,1.67,0,0,0,1.9,1.59,4.73,4.73,0,0,0,1.69-.28l.23,1.07a5.56,5.56,0,0,1-2.14.39A2.91,2.91,0,0,1,97,258.3a3,3,0,0,1,3-3.3c2,0,2.64,1.65,2.64,3a3.45,3.45,0,0,1,0,.66Zm2.7-1.09a1.31,1.31,0,0,0-1.28-1.49,1.51,1.51,0,0,0-1.42,1.49Z" transform="translate(-8.45 -5.67)" style="fill:#d5569f"/><rect x="151.37" y="152.91" width="295.17" height="164.14" style="fill:none;stroke:#9dc65a;stroke-miterlimit:10;stroke-width:2px"/><rect x="165.22" y="179.74" width="134.07" height="39.06" style="fill:#9dc65a"/><path d="M222.19,206.54c0-.87-.08-1.92-.08-2.83h0c-.22.82-.5,1.73-.79,2.58l-1,2.92h-1l-.89-2.88c-.26-.86-.5-1.78-.68-2.62h0c0,.88-.07,1.95-.12,2.87l-.15,2.71h-1.15l.45-6.74h1.61l.88,2.71c.24.79.46,1.59.62,2.34h0c.18-.73.41-1.56.67-2.35l.94-2.7h1.59l.39,6.74h-1.2Z" transform="translate(-8.45 -5.67)" style="fill:#231f20"/><path d="M225.65,207.2a1.32,1.32,0,0,0,1.5,1.26,3.86,3.86,0,0,0,1.34-.22l.18.84a4.3,4.3,0,0,1-1.7.31,2.3,2.3,0,0,1-2.5-2.46,2.41,2.41,0,0,1,2.38-2.62,2.11,2.11,0,0,1,2.09,2.37,3,3,0,0,1,0,.52Zm2.14-.86a1.05,1.05,0,0,0-1-1.19,1.21,1.21,0,0,0-1.13,1.19Z" transform="translate(-8.45 -5.67)" style="fill:#231f20"/><path d="M229.94,205.87c0-.56,0-1,0-1.45h1l.06.72h0a1.65,1.65,0,0,1,1.49-.83,1.39,1.39,0,0,1,1.35.9h0a1.94,1.94,0,0,1,.6-.61,1.66,1.66,0,0,1,1-.29c.8,0,1.62.55,1.62,2.11v2.87h-1.2V206.6c0-.81-.28-1.29-.87-1.29a.92.92,0,0,0-.85.65,1.31,1.31,0,0,0-.06.41v2.92h-1.2v-2.82c0-.68-.28-1.16-.84-1.16a1,1,0,0,0-.89.69,1.4,1.4,0,0,0-.06.41v2.88h-1.2Z" transform="translate(-8.45 -5.67)" style="fill:#231f20"/><path d="M242,209.14a3.5,3.5,0,0,1-1.37.25,2.34,2.34,0,0,1-2.51-2.49,2.5,2.5,0,0,1,2.7-2.58,3,3,0,0,1,1.19.22l-.22.92a2.13,2.13,0,0,0-.93-.19,1.58,1.58,0,0,0,0,3.15,2.39,2.39,0,0,0,1-.19Z" transform="translate(-8.45 -5.67)" style="fill:#231f20"/><path d="M245.67,209.29l-.09-.54h0a1.77,1.77,0,0,1-1.43.65,1.44,1.44,0,0,1-1.53-1.45c0-1.23,1.09-1.85,2.88-1.84V206c0-.32-.13-.85-1-.85a2.57,2.57,0,0,0-1.3.36l-.25-.8a3.58,3.58,0,0,1,1.77-.43,1.81,1.81,0,0,1,2,2.05v1.76a6.57,6.57,0,0,0,.08,1.17Zm-.17-2.39c-.86,0-1.69.18-1.69.92a.65.65,0,0,0,.7.7,1,1,0,0,0,1-.68.77.77,0,0,0,0-.26Z" transform="translate(-8.45 -5.67)" style="fill:#231f20"/><path d="M251.58,209.14a3.5,3.5,0,0,1-1.37.25,2.34,2.34,0,0,1-2.51-2.49,2.5,2.5,0,0,1,2.7-2.58,3,3,0,0,1,1.19.22l-.22.92a2.13,2.13,0,0,0-.93-.19,1.58,1.58,0,0,0,0,3.15,2.39,2.39,0,0,0,1-.19Z" transform="translate(-8.45 -5.67)" style="fill:#231f20"/><path d="M252.5,202.19h1.23v2.9h0a1.73,1.73,0,0,1,.61-.56,1.7,1.7,0,0,1,.84-.22c.83,0,1.7.55,1.7,2.11v2.87h-1.23v-2.73c0-.71-.25-1.24-.93-1.24a1,1,0,0,0-1,1.06v2.91H252.5Z" transform="translate(-8.45 -5.67)" style="fill:#231f20"/><path d="M259.09,207.2a1.32,1.32,0,0,0,1.5,1.26,3.86,3.86,0,0,0,1.34-.22l.18.84a4.3,4.3,0,0,1-1.7.31,2.3,2.3,0,0,1-2.5-2.46,2.41,2.41,0,0,1,2.38-2.62,2.11,2.11,0,0,1,2.09,2.37,3,3,0,0,1,0,.52Zm2.14-.86a1.06,1.06,0,0,0-1-1.19,1.21,1.21,0,0,0-1.13,1.19Z" transform="translate(-8.45 -5.67)" style="fill:#231f20"/><rect x="304.95" y="179.74" width="134.07" height="39.06" style="fill:#ffe55e"/><path d="M365.89,207.38l-.57,1.91H364l2.17-6.74h1.56l2.19,6.74h-1.32l-.61-1.91Zm1.94-.93-.53-1.66c-.13-.41-.24-.87-.35-1.26h0c-.1.39-.2.86-.32,1.26l-.52,1.66Z" transform="translate(-8.45 -5.67)" style="fill:#231f20"/><path d="M375.21,202.19v5.73c0,.5,0,1,0,1.37h-1.09l-.06-.77h0a1.75,1.75,0,0,1-1.58.88,2.23,2.23,0,0,1-2.08-2.49,2.32,2.32,0,0,1,2.18-2.6A1.54,1.54,0,0,1,374,205h0v-2.76ZM374,206.45a1.16,1.16,0,0,0,0-.32,1.07,1.07,0,0,0-1.05-.87c-.8,0-1.24.7-1.24,1.61s.45,1.54,1.22,1.54a1.08,1.08,0,0,0,1.06-.87,1.37,1.37,0,0,0,0-.36Z" transform="translate(-8.45 -5.67)" style="fill:#231f20"/><path d="M376.54,205.87c0-.56,0-1,0-1.45h1.05l.06.72h0a1.68,1.68,0,0,1,1.5-.83,1.39,1.39,0,0,1,1.35.9h0a1.94,1.94,0,0,1,.6-.61,1.64,1.64,0,0,1,1-.29c.8,0,1.62.55,1.62,2.11v2.87h-1.2V206.6c0-.81-.28-1.29-.87-1.29a.92.92,0,0,0-.85.65,1.3,1.3,0,0,0-.07.41v2.92h-1.2v-2.82c0-.68-.27-1.16-.84-1.16a1,1,0,0,0-.88.69,1.4,1.4,0,0,0-.06.41v2.88h-1.2Z" transform="translate(-8.45 -5.67)" style="fill:#231f20"/><path d="M386.32,203.06a.65.65,0,0,1-.7.66.63.63,0,0,1-.67-.66.69.69,0,0,1,1.37,0Zm-1.3,6.23v-4.87h1.23v4.87Z" transform="translate(-8.45 -5.67)" style="fill:#231f20"/><path d="M387.58,205.87c0-.56,0-1,0-1.45h1.07l.06.73h0a1.78,1.78,0,0,1,1.55-.84c.85,0,1.73.55,1.73,2.09v2.89h-1.23v-2.75c0-.7-.25-1.23-.93-1.23a1,1,0,0,0-.95.72,1.14,1.14,0,0,0-.06.39v2.87h-1.23Z" transform="translate(-8.45 -5.67)" style="fill:#231f20"/><rect x="165.22" y="224.24" width="134.07" height="39.06" style="fill:#9dc65a"/><path d="M229.07,246.94a11.68,11.68,0,0,1,1.86-.14,3.12,3.12,0,0,1,2.08.54,1.71,1.71,0,0,1,.58,1.36,1.79,1.79,0,0,1-1.22,1.68v0a1.68,1.68,0,0,1,.93,1.3,14.58,14.58,0,0,0,.54,1.88h-1.27a9.52,9.52,0,0,1-.45-1.59c-.19-.88-.51-1.16-1.21-1.18h-.62v2.77h-1.22Zm1.22,3H231c.83,0,1.34-.44,1.34-1.11s-.51-1.08-1.31-1.08a3.54,3.54,0,0,0-.76.06Z" transform="translate(-8.45 -5.67)" style="fill:#231f20"/><path d="M238.53,250.6H236v2h2.84v1h-4.07v-6.74h3.92v1H236v1.74h2.54Z" transform="translate(-8.45 -5.67)" style="fill:#231f20"/><path d="M239.88,252.25a3.41,3.41,0,0,0,1.63.43c.79,0,1.23-.37,1.23-.92s-.35-.81-1.2-1.12c-1.11-.4-1.82-1-1.82-2s.92-1.93,2.38-1.93a3.58,3.58,0,0,1,1.62.33l-.3,1a3,3,0,0,0-1.34-.32c-.78,0-1.12.42-1.12.82s.39.75,1.29,1.1c1.17.44,1.74,1,1.74,2s-.82,2-2.56,2a4,4,0,0,1-1.82-.42Z" transform="translate(-8.45 -5.67)" style="fill:#231f20"/><path d="M245.1,246.94a10.66,10.66,0,0,1,1.88-.14,3,3,0,0,1,2,.55,1.87,1.87,0,0,1,.66,1.49,2.08,2.08,0,0,1-.57,1.53,3,3,0,0,1-2.13.72,3.47,3.47,0,0,1-.6,0v2.54H245.1Zm1.22,3.14a2.48,2.48,0,0,0,.6,0c.92,0,1.48-.45,1.48-1.24s-.52-1.14-1.37-1.14a3.61,3.61,0,0,0-.71.05Z" transform="translate(-8.45 -5.67)" style="fill:#231f20"/><rect x="165.22" y="269.92" width="134.07" height="39.06" style="fill:#9dc65a"/><path d="M229.55,292.74v2.69h2.84v-2.69h1.24v6.73h-1.24v-3h-2.84v3h-1.23v-6.73Z" transform="translate(-8.45 -5.67)" style="fill:#231f20"/><path d="M236.33,293.77h-1.92v-1h5.09v1h-1.94v5.7h-1.23Z" transform="translate(-8.45 -5.67)" style="fill:#231f20"/><path d="M242.12,293.77H240.2v-1h5.09v1h-1.94v5.7h-1.23Z" transform="translate(-8.45 -5.67)" style="fill:#231f20"/><path d="M246.08,292.82a12,12,0,0,1,1.88-.13,3,3,0,0,1,2,.55,1.86,1.86,0,0,1,.66,1.49,2.05,2.05,0,0,1-.57,1.52,3,3,0,0,1-2.13.73,2.64,2.64,0,0,1-.6-.05v2.54h-1.22ZM247.3,296a2,2,0,0,0,.6.06c.92,0,1.48-.46,1.48-1.25s-.52-1.14-1.37-1.14a3.4,3.4,0,0,0-.71.06Z" transform="translate(-8.45 -5.67)" style="fill:#231f20"/><path d="M369.09,252.25a1.72,1.72,0,0,1,.49-1.32,1.75,1.75,0,0,1,1.28-.47,1.84,1.84,0,0,1,1.33.47,1.75,1.75,0,0,1,.48,1.32,1.78,1.78,0,0,1-.48,1.28,1.75,1.75,0,0,1-1.33.51,1.66,1.66,0,0,1-1.28-.51A1.75,1.75,0,0,1,369.09,252.25Zm6.73,0a1.64,1.64,0,0,1,1.76-1.79,1.83,1.83,0,0,1,1.33.47,1.75,1.75,0,0,1,.48,1.32,1.78,1.78,0,0,1-.48,1.28,1.73,1.73,0,0,1-1.33.51,1.68,1.68,0,0,1-1.28-.51A1.78,1.78,0,0,1,375.82,252.25Zm6.78,0a1.64,1.64,0,0,1,1.76-1.79,1.83,1.83,0,0,1,1.33.47,1.75,1.75,0,0,1,.48,1.32,1.78,1.78,0,0,1-.48,1.28,1.73,1.73,0,0,1-1.33.51,1.66,1.66,0,0,1-1.28-.51A1.78,1.78,0,0,1,382.6,252.25Z" transform="translate(-8.45 -5.67)" style="fill:#231f20"/><rect x="9.23" y="371.08" width="103.58" height="28.81" style="fill:#007dc5"/><path d="M54.19,396.35l-1.64-6.74h1.31l.64,3.06c.17.82.32,1.68.44,2.35h0c.11-.71.29-1.51.49-2.36l.72-3.05h1.3l.67,3.1c.16.8.3,1.55.4,2.28h0c.12-.75.28-1.51.46-2.33l.7-3.05H61l-1.82,6.74H57.85l-.7-3.17c-.17-.77-.29-1.41-.38-2.14h0a19.87,19.87,0,0,1-.44,2.14l-.79,3.17Z" transform="translate(-8.45 -5.67)" style="fill:#fff"/><path d="M65.6,393.87a2.41,2.41,0,0,1-2.5,2.59A2.35,2.35,0,0,1,60.67,394a2.41,2.41,0,0,1,2.52-2.58A2.33,2.33,0,0,1,65.6,393.87Zm-3.67.05c0,.94.47,1.64,1.21,1.64s1.2-.68,1.2-1.66c0-.76-.34-1.63-1.19-1.63S61.93,393.11,61.93,393.92Z" transform="translate(-8.45 -5.67)" style="fill:#fff"/><path d="M66.62,393.05c0-.65,0-1.13,0-1.57h1.06l0,.93h0a1.45,1.45,0,0,1,1.34-1,1.29,1.29,0,0,1,.29,0v1.16a1.9,1.9,0,0,0-.37,0,1.09,1.09,0,0,0-1.1.93,2.13,2.13,0,0,0,0,.37v2.53H66.62Z" transform="translate(-8.45 -5.67)" style="fill:#fff"/><path d="M71.41,393.62h0a5.65,5.65,0,0,1,.38-.57L73,391.48h1.48l-1.81,2,2.06,2.88H73.22l-1.4-2.15-.41.49v1.66H70.18v-7.1h1.23Z" transform="translate(-8.45 -5.67)" style="fill:#fff"/><path d="M75.88,394.26a1.32,1.32,0,0,0,1.5,1.26,3.86,3.86,0,0,0,1.34-.22l.18.84a4.3,4.3,0,0,1-1.7.31A2.3,2.3,0,0,1,74.7,394a2.41,2.41,0,0,1,2.38-2.62,2.11,2.11,0,0,1,2.09,2.37,3,3,0,0,1,0,.52ZM78,393.4a1.06,1.06,0,0,0-1-1.19,1.21,1.21,0,0,0-1.13,1.19Z" transform="translate(-8.45 -5.67)" style="fill:#fff"/><path d="M80.17,393.05c0-.65,0-1.13,0-1.57h1.06l0,.93h0a1.45,1.45,0,0,1,1.34-1,1.29,1.29,0,0,1,.29,0v1.16a1.9,1.9,0,0,0-.37,0,1.09,1.09,0,0,0-1.1.93,2.13,2.13,0,0,0,0,.37v2.53H80.17Z" transform="translate(-8.45 -5.67)" style="fill:#fff"/><rect x="9.23" y="404.67" width="62.03" height="28.81" style="fill:#939598"/><path d="M41.49,423.29a10.5,10.5,0,0,1,1.8-.14,3.29,3.29,0,0,1,1.93.42,1.46,1.46,0,0,1,.69,1.27,1.53,1.53,0,0,1-1.12,1.45v0A1.7,1.7,0,0,1,46.15,428a1.76,1.76,0,0,1-.64,1.39A3.81,3.81,0,0,1,43,430a10.43,10.43,0,0,1-1.52-.09ZM42.71,426h.63c.86,0,1.33-.4,1.33-1s-.48-.92-1.25-.92a3.46,3.46,0,0,0-.71.05Zm0,3.09a3.85,3.85,0,0,0,.66,0c.78,0,1.49-.3,1.49-1.13s-.69-1.1-1.53-1.1h-.62Z" transform="translate(-8.45 -5.67)" style="fill:#fff"/><path d="M51.56,428.48c0,.58,0,1.06,0,1.46H50.53l-.06-.74h0a1.77,1.77,0,0,1-1.56.85c-.88,0-1.69-.54-1.69-2.13v-2.85h1.23v2.65c0,.81.26,1.32.91,1.32a1,1,0,0,0,.94-.65,1.12,1.12,0,0,0,.06-.38v-2.94h1.23Z" transform="translate(-8.45 -5.67)" style="fill:#fff"/><path d="M53,429.94V426h-.66v-.92H53v-.21a2.27,2.27,0,0,1,.59-1.66,1.84,1.84,0,0,1,1.27-.47,2.28,2.28,0,0,1,.78.12l-.08.95a1.49,1.49,0,0,0-.53-.09c-.61,0-.81.51-.81,1.11v.25h1.06V426h-1v3.95Z" transform="translate(-8.45 -5.67)" style="fill:#fff"/><rect x="76.48" y="404.67" width="62.03" height="28.81" style="fill:#939598"/><path d="M100,428.59a3.44,3.44,0,0,0,1.63.43c.79,0,1.23-.37,1.23-.92s-.34-.8-1.2-1.11c-1.11-.4-1.82-1-1.82-2s.92-1.93,2.38-1.93a3.58,3.58,0,0,1,1.62.33l-.3,1a2.85,2.85,0,0,0-1.34-.32c-.78,0-1.11.42-1.11.81s.39.76,1.28,1.11c1.18.44,1.74,1,1.74,2s-.82,2-2.56,2a3.87,3.87,0,0,1-1.82-.43Z" transform="translate(-8.45 -5.67)" style="fill:#fff"/><path d="M106.4,423.68v1.39h1.17V426H106.4v2.14c0,.6.16.9.63.9a1.9,1.9,0,0,0,.48,0l0,.93a2.77,2.77,0,0,1-.9.13,1.42,1.42,0,0,1-1.06-.4,2,2,0,0,1-.38-1.37V426h-.7v-.92h.7V424Z" transform="translate(-8.45 -5.67)" style="fill:#fff"/><path d="M108.51,426.63c0-.65,0-1.13,0-1.56h1.06l0,.93h0a1.45,1.45,0,0,1,1.33-1,1.29,1.29,0,0,1,.29,0v1.16a1.23,1.23,0,0,0-.36,0,1.08,1.08,0,0,0-1.1.93,2.13,2.13,0,0,0,0,.37v2.53h-1.23Z" transform="translate(-8.45 -5.67)" style="fill:#fff"/><path d="M112.7,427.84a1.33,1.33,0,0,0,1.51,1.27,3.86,3.86,0,0,0,1.34-.22l.18.84a4.34,4.34,0,0,1-1.7.31,2.31,2.31,0,0,1-2.51-2.47A2.41,2.41,0,0,1,113.9,425a2.11,2.11,0,0,1,2.1,2.37,2.8,2.8,0,0,1,0,.51Zm2.14-.85a1,1,0,0,0-1-1.19A1.2,1.2,0,0,0,112.7,427Z" transform="translate(-8.45 -5.67)" style="fill:#fff"/><path d="M119.73,429.94l-.08-.55h0a1.77,1.77,0,0,1-1.43.66,1.45,1.45,0,0,1-1.54-1.45c0-1.23,1.1-1.85,2.89-1.84v-.08c0-.32-.13-.86-1-.85a2.58,2.58,0,0,0-1.31.36l-.24-.8a3.57,3.57,0,0,1,1.76-.43,1.82,1.82,0,0,1,2,2.05v1.75a7.86,7.86,0,0,0,.07,1.18Zm-.16-2.39c-.87,0-1.7.17-1.7.92a.65.65,0,0,0,.7.7,1,1,0,0,0,1-.68,1.15,1.15,0,0,0,0-.26Z" transform="translate(-8.45 -5.67)" style="fill:#fff"/><path d="M122.08,426.52c0-.56,0-1,0-1.45h1l0,.71h0a1.7,1.7,0,0,1,1.5-.82,1.4,1.4,0,0,1,1.35.9h0a1.94,1.94,0,0,1,.6-.61,1.63,1.63,0,0,1,1-.29c.81,0,1.63.55,1.63,2.11v2.87h-1.2v-2.7c0-.81-.28-1.28-.87-1.28a.92.92,0,0,0-.86.65,1.68,1.68,0,0,0-.06.41v2.92h-1.2v-2.82c0-.68-.27-1.16-.84-1.16a1,1,0,0,0-.88.69,1.13,1.13,0,0,0-.06.41v2.88h-1.2Z" transform="translate(-8.45 -5.67)" style="fill:#fff"/><rect x="143.73" y="404.67" width="62.03" height="28.81" style="fill:#939598"/><path d="M175.35,423.2h1.24v5.7h2.77v1h-4Z" transform="translate(-8.45 -5.67)" style="fill:#fff"/><path d="M184.67,427.46a2.42,2.42,0,0,1-2.5,2.59,2.35,2.35,0,0,1-2.44-2.51,2.4,2.4,0,0,1,2.52-2.58A2.34,2.34,0,0,1,184.67,427.46Zm-3.67.05c0,.93.46,1.64,1.21,1.64s1.19-.68,1.19-1.66c0-.76-.34-1.64-1.19-1.64S181,426.7,181,427.51Z" transform="translate(-8.45 -5.67)" style="fill:#fff"/><path d="M190.15,425.07c0,.33,0,.73,0,1.4v2.76A2.35,2.35,0,0,1,187.5,432a3.54,3.54,0,0,1-1.69-.38l.27-.94a2.83,2.83,0,0,0,1.42.38,1.29,1.29,0,0,0,1.39-1.47v-.42h0a1.61,1.61,0,0,1-1.41.71,2.16,2.16,0,0,1-2.07-2.37,2.33,2.33,0,0,1,2.2-2.57,1.54,1.54,0,0,1,1.42.76h0l0-.65ZM188.88,427a1.15,1.15,0,0,0,0-.33,1,1,0,0,0-1-.79c-.68,0-1.19.6-1.19,1.59,0,.83.42,1.5,1.19,1.5a1,1,0,0,0,1-.75,1.54,1.54,0,0,0,.06-.43Z" transform="translate(-8.45 -5.67)" style="fill:#fff"/><rect x="210.98" y="404.67" width="62.03" height="28.81" style="fill:#939598"/><path d="M242.16,427.19c0-.87-.09-1.92-.08-2.84h0c-.22.83-.5,1.74-.79,2.59l-1,2.92h-1l-.89-2.88a26.1,26.1,0,0,1-.68-2.63h0c0,.89-.07,2-.13,2.88l-.15,2.71h-1.14l.45-6.74h1.61l.88,2.7c.24.8.46,1.6.62,2.35h0c.18-.73.41-1.56.67-2.35l.94-2.7h1.59l.39,6.74h-1.2Z" transform="translate(-8.45 -5.67)" style="fill:#fff"/><path d="M245.61,427.84a1.33,1.33,0,0,0,1.51,1.27,3.86,3.86,0,0,0,1.34-.22l.18.84a4.3,4.3,0,0,1-1.7.31,2.3,2.3,0,0,1-2.5-2.47,2.4,2.4,0,0,1,2.38-2.61,2.11,2.11,0,0,1,2.09,2.37,2.8,2.8,0,0,1,0,.51Zm2.14-.85a1,1,0,0,0-1-1.19,1.21,1.21,0,0,0-1.13,1.19Z" transform="translate(-8.45 -5.67)" style="fill:#fff"/><path d="M251.32,423.68v1.39h1.17V426h-1.17v2.14c0,.6.16.9.63.9a1.81,1.81,0,0,0,.47,0l0,.93a2.77,2.77,0,0,1-.9.13,1.38,1.38,0,0,1-1.05-.4,1.92,1.92,0,0,1-.39-1.37V426h-.69v-.92h.69V424Z" transform="translate(-8.45 -5.67)" style="fill:#fff"/><path d="M253.42,426.63c0-.65,0-1.13,0-1.56h1.06l.05.93h0a1.45,1.45,0,0,1,1.34-1,1.14,1.14,0,0,1,.28,0v1.16a1.23,1.23,0,0,0-.36,0,1.08,1.08,0,0,0-1.1.93,2.13,2.13,0,0,0,0,.37v2.53h-1.23Z" transform="translate(-8.45 -5.67)" style="fill:#fff"/><path d="M258.29,423.71a.65.65,0,0,1-.7.66.64.64,0,0,1-.67-.66.69.69,0,0,1,1.37,0Zm-1.3,6.23v-4.87h1.23v4.87Z" transform="translate(-8.45 -5.67)" style="fill:#fff"/><path d="M263.12,429.79a3.5,3.5,0,0,1-1.37.25,2.34,2.34,0,0,1-2.51-2.49,2.51,2.51,0,0,1,2.7-2.59,3,3,0,0,1,1.19.23l-.22.92a2,2,0,0,0-.93-.19,1.58,1.58,0,0,0,0,3.15,2.39,2.39,0,0,0,1-.19Z" transform="translate(-8.45 -5.67)" style="fill:#fff"/><rect x="278.23" y="404.67" width="62.03" height="28.81" style="fill:#939598"/><path d="M308.11,429.74a4.46,4.46,0,0,1-1.75.3,3.18,3.18,0,0,1-3.44-3.39,3.39,3.39,0,0,1,3.61-3.55,3.86,3.86,0,0,1,1.63.29l-.26,1a3.31,3.31,0,0,0-1.32-.26,2.24,2.24,0,0,0-2.36,2.48,2.2,2.2,0,0,0,2.35,2.42,3.73,3.73,0,0,0,1.34-.24Z" transform="translate(-8.45 -5.67)" style="fill:#fff"/><path d="M313.38,427.46a2.42,2.42,0,0,1-2.5,2.59,2.35,2.35,0,0,1-2.44-2.51A2.4,2.4,0,0,1,311,425,2.34,2.34,0,0,1,313.38,427.46Zm-3.67.05c0,.93.46,1.64,1.21,1.64s1.19-.68,1.19-1.66c0-.76-.34-1.64-1.19-1.64S309.71,426.7,309.71,427.51Z" transform="translate(-8.45 -5.67)" style="fill:#fff"/><path d="M314.39,426.52c0-.56,0-1,0-1.45h1.08l.06.73h0a1.76,1.76,0,0,1,1.55-.84c.85,0,1.73.55,1.73,2.09v2.89h-1.23v-2.75c0-.7-.26-1.23-.93-1.23a1,1,0,0,0-1,.72,1.14,1.14,0,0,0-.06.39v2.87h-1.23Z" transform="translate(-8.45 -5.67)" style="fill:#fff"/><path d="M320.25,429.94V426h-.66v-.92h.66v-.23a2.07,2.07,0,0,1,2.35-2.11A2.89,2.89,0,0,1,324,423l-.27.93a2.27,2.27,0,0,0-1.07-.26,1,1,0,0,0-1.14,1.16v.2h2.9v4.87h-1.23V426h-1.66v3.95Z" transform="translate(-8.45 -5.67)" style="fill:#fff"/><path d="M330.15,425.07c0,.33,0,.73,0,1.4v2.76a2.8,2.8,0,0,1-.72,2.2,2.76,2.76,0,0,1-1.89.59,3.54,3.54,0,0,1-1.69-.38l.27-.94a2.83,2.83,0,0,0,1.42.38,1.3,1.3,0,0,0,1.4-1.47v-.42h0a1.64,1.64,0,0,1-1.42.71,2.16,2.16,0,0,1-2.07-2.37,2.33,2.33,0,0,1,2.2-2.57,1.54,1.54,0,0,1,1.42.76h0l0-.65ZM328.88,427a1.15,1.15,0,0,0,0-.33,1,1,0,0,0-1-.79c-.68,0-1.19.6-1.19,1.59,0,.83.42,1.5,1.19,1.5a1,1,0,0,0,1-.75,1.54,1.54,0,0,0,.06-.43Z" transform="translate(-8.45 -5.67)" style="fill:#fff"/><rect x="345.48" y="404.67" width="62.03" height="28.81" style="fill:#939598"/><path d="M376.33,427h-2.54v2h2.84v1h-4.07V423.2h3.92v1h-2.69v1.73h2.54Z" transform="translate(-8.45 -5.67)" style="fill:#fff"/><path d="M378.21,425.07l.78,2.47c.14.43.25.82.34,1.22h0c.09-.4.2-.79.33-1.22l.77-2.47h1.29l-1.86,4.87h-1.21l-1.8-4.87Z" transform="translate(-8.45 -5.67)" style="fill:#fff"/><path d="M383.25,427.84a1.32,1.32,0,0,0,1.5,1.27,3.86,3.86,0,0,0,1.34-.22l.18.84a4.3,4.3,0,0,1-1.7.31,2.3,2.3,0,0,1-2.5-2.47,2.4,2.4,0,0,1,2.38-2.61,2.11,2.11,0,0,1,2.09,2.37,2.8,2.8,0,0,1,0,.51Zm2.14-.85a1.05,1.05,0,0,0-1-1.19,1.21,1.21,0,0,0-1.13,1.19Z" transform="translate(-8.45 -5.67)" style="fill:#fff"/><path d="M387.54,426.52c0-.56,0-1,0-1.45h1.08l.06.73h0a1.78,1.78,0,0,1,1.55-.84c.85,0,1.73.55,1.73,2.09v2.89h-1.23v-2.75c0-.7-.25-1.23-.92-1.23a1,1,0,0,0-1,.72,1.14,1.14,0,0,0-.06.39v2.87h-1.23Z" transform="translate(-8.45 -5.67)" style="fill:#fff"/><path d="M394.48,423.68v1.39h1.17V426h-1.17v2.14c0,.6.16.9.63.9a1.81,1.81,0,0,0,.47,0l0,.93a2.77,2.77,0,0,1-.9.13,1.38,1.38,0,0,1-1-.4,1.92,1.92,0,0,1-.39-1.37V426h-.69v-.92h.69V424Z" transform="translate(-8.45 -5.67)" style="fill:#fff"/><rect x="117.97" y="371.08" width="103.58" height="28.81" style="fill:#007dc5"/><path d="M163.44,395a3.52,3.52,0,0,0,1.63.43c.78,0,1.22-.37,1.22-.92s-.34-.81-1.19-1.12c-1.11-.4-1.82-1-1.82-2s.92-1.93,2.38-1.93a3.58,3.58,0,0,1,1.62.33l-.3,1a3,3,0,0,0-1.34-.32c-.79,0-1.12.42-1.12.81s.39.76,1.29,1.11c1.17.44,1.73,1,1.73,2s-.81,2-2.55,2a3.87,3.87,0,0,1-1.82-.43Z" transform="translate(-8.45 -5.67)" style="fill:#fff"/><path d="M169.54,394.26a1.32,1.32,0,0,0,1.5,1.26,3.82,3.82,0,0,0,1.34-.22l.19.84a4.37,4.37,0,0,1-1.7.31,2.3,2.3,0,0,1-2.51-2.46,2.41,2.41,0,0,1,2.38-2.62,2.12,2.12,0,0,1,2.1,2.37,2.15,2.15,0,0,1-.05.52Zm2.14-.86a1.05,1.05,0,0,0-1-1.19,1.2,1.2,0,0,0-1.12,1.19Z" transform="translate(-8.45 -5.67)" style="fill:#fff"/><path d="M173.83,393.05c0-.65,0-1.13,0-1.57h1.07l0,.93h0a1.44,1.44,0,0,1,1.33-1,1.29,1.29,0,0,1,.29,0v1.16a1.79,1.79,0,0,0-.36,0,1.09,1.09,0,0,0-1.11.93,2.13,2.13,0,0,0,0,.37v2.53h-1.23Z" transform="translate(-8.45 -5.67)" style="fill:#fff"/><path d="M178.94,391.48l.79,2.47c.14.43.24.82.33,1.22h0c.09-.4.2-.79.33-1.22l.77-2.47h1.29l-1.85,4.87h-1.22l-1.8-4.87Z" transform="translate(-8.45 -5.67)" style="fill:#fff"/><path d="M184,394.26a1.32,1.32,0,0,0,1.5,1.26,3.82,3.82,0,0,0,1.34-.22l.19.84a4.37,4.37,0,0,1-1.7.31A2.3,2.3,0,0,1,182.8,394a2.41,2.41,0,0,1,2.38-2.62,2.12,2.12,0,0,1,2.1,2.37,2.15,2.15,0,0,1-.05.52Zm2.14-.86a1.05,1.05,0,0,0-1-1.19A1.2,1.2,0,0,0,184,393.4Z" transform="translate(-8.45 -5.67)" style="fill:#fff"/><path d="M188.27,393.05c0-.65,0-1.13,0-1.57h1.07l0,.93h0a1.44,1.44,0,0,1,1.33-1,1.29,1.29,0,0,1,.29,0v1.16a1.79,1.79,0,0,0-.36,0,1.09,1.09,0,0,0-1.11.93,2.13,2.13,0,0,0,0,.37v2.53h-1.23Z" transform="translate(-8.45 -5.67)" style="fill:#fff"/><rect x="226.7" y="371.08" width="103.58" height="28.81" style="fill:#007dc5"/><path d="M273.63,394.44l-.57,1.91h-1.27l2.16-6.74h1.56l2.19,6.74h-1.32l-.61-1.91Zm1.94-.93-.53-1.66c-.13-.41-.24-.87-.34-1.26h0c-.09.39-.2.86-.32,1.26l-.52,1.66Z" transform="translate(-8.45 -5.67)" style="fill:#fff"/><path d="M283,389.25V395c0,.5,0,1,0,1.37H281.9l-.06-.77h0a1.75,1.75,0,0,1-1.58.88,2.23,2.23,0,0,1-2.08-2.49,2.32,2.32,0,0,1,2.18-2.6,1.52,1.52,0,0,1,1.36.64h0v-2.76Zm-1.23,4.26a1.72,1.72,0,0,0,0-.32,1.09,1.09,0,0,0-1.06-.87c-.8,0-1.23.7-1.23,1.61s.44,1.54,1.21,1.54a1.1,1.1,0,0,0,1.07-.87,2,2,0,0,0,0-.36Z" transform="translate(-8.45 -5.67)" style="fill:#fff"/><path d="M284.28,392.93c0-.56,0-1,0-1.45h1.05l.06.72h0a1.65,1.65,0,0,1,1.49-.83,1.39,1.39,0,0,1,1.35.9h0a1.94,1.94,0,0,1,.6-.61,1.66,1.66,0,0,1,1-.29c.8,0,1.62.55,1.62,2.11v2.87h-1.2v-2.69c0-.81-.28-1.29-.87-1.29a.92.92,0,0,0-.85.65,1.35,1.35,0,0,0-.06.41v2.92h-1.2v-2.82c0-.68-.28-1.16-.84-1.16a1,1,0,0,0-.89.7,1.29,1.29,0,0,0-.06.4v2.88h-1.2Z" transform="translate(-8.45 -5.67)" style="fill:#fff"/><path d="M294.06,390.12a.65.65,0,0,1-.7.66.64.64,0,0,1-.67-.66.65.65,0,0,1,.69-.66A.64.64,0,0,1,294.06,390.12Zm-1.3,6.23v-4.87H294v4.87Z" transform="translate(-8.45 -5.67)" style="fill:#fff"/><path d="M295.32,392.93c0-.56,0-1,0-1.45h1.07l.07.73h0a1.8,1.8,0,0,1,1.55-.84c.85,0,1.73.55,1.73,2.09v2.89h-1.23V393.6c0-.7-.25-1.23-.93-1.23a1,1,0,0,0-.95.72,1.23,1.23,0,0,0-.06.39v2.87h-1.23Z" transform="translate(-8.45 -5.67)" style="fill:#fff"/><rect x="335.44" y="371.08" width="103.58" height="28.81" style="fill:#007dc5"/><path d="M381.16,389.7a12.51,12.51,0,0,1,2-.14,4.09,4.09,0,0,1,2.75.78,3,3,0,0,1,1.05,2.48,3.52,3.52,0,0,1-1,2.68,4.6,4.6,0,0,1-3.06.91,11.9,11.9,0,0,1-1.66-.09Zm1.23,5.71a4.66,4.66,0,0,0,.69,0,2.31,2.31,0,0,0,2.54-2.58,2.13,2.13,0,0,0-2.39-2.34,4,4,0,0,0-.84.07Z" transform="translate(-8.45 -5.67)" style="fill:#fff"/><path d="M388.82,394.26a1.33,1.33,0,0,0,1.51,1.26,3.86,3.86,0,0,0,1.34-.22l.18.84a4.3,4.3,0,0,1-1.7.31,2.3,2.3,0,0,1-2.5-2.46,2.41,2.41,0,0,1,2.38-2.62,2.11,2.11,0,0,1,2.09,2.37,3,3,0,0,1,0,.52Zm2.14-.86a1,1,0,0,0-1-1.19,1.21,1.21,0,0,0-1.13,1.19Z" transform="translate(-8.45 -5.67)" style="fill:#fff"/><path d="M393.08,396.35c0-.33,0-.87,0-1.37v-5.73h1.23v2.9h0a1.76,1.76,0,0,1,1.55-.78c1.19,0,2,1,2,2.47a2.33,2.33,0,0,1-2.21,2.62,1.66,1.66,0,0,1-1.53-.84h0l-.05.73Zm1.27-2a1.23,1.23,0,0,0,0,.29,1.12,1.12,0,0,0,1.08.87c.78,0,1.24-.62,1.24-1.6s-.41-1.56-1.22-1.56a1.14,1.14,0,0,0-1.09.9,1,1,0,0,0,0,.32Z" transform="translate(-8.45 -5.67)" style="fill:#fff"/><path d="M403.32,394.89c0,.58,0,1.06,0,1.46h-1.07l-.06-.74h0a1.78,1.78,0,0,1-1.56.85c-.89,0-1.69-.53-1.69-2.12v-2.86h1.23v2.65c0,.81.25,1.33.9,1.33a1,1,0,0,0,.94-.66,1.12,1.12,0,0,0,.07-.38v-2.94h1.23Z" transform="translate(-8.45 -5.67)" style="fill:#fff"/><path d="M409.1,391.48c0,.33,0,.73,0,1.4v2.76a2.35,2.35,0,0,1-2.6,2.8,3.49,3.49,0,0,1-1.69-.39l.26-.94a2.89,2.89,0,0,0,1.42.38,1.29,1.29,0,0,0,1.4-1.47v-.42h0a1.63,1.63,0,0,1-1.42.72,2.16,2.16,0,0,1-2.06-2.38,2.33,2.33,0,0,1,2.2-2.57,1.52,1.52,0,0,1,1.41.76h0l0-.65Zm-1.27,2a1.22,1.22,0,0,0,0-.34,1,1,0,0,0-1-.79c-.68,0-1.2.6-1.2,1.59,0,.83.42,1.5,1.19,1.5a1,1,0,0,0,1-.75,1.49,1.49,0,0,0,.05-.43Z" transform="translate(-8.45 -5.67)" style="fill:#fff"/><path d="M422.91,425.56a1.64,1.64,0,0,1,1.76-1.79,1.83,1.83,0,0,1,1.33.47,1.75,1.75,0,0,1,.48,1.32,1.8,1.8,0,0,1-.48,1.28,1.73,1.73,0,0,1-1.33.51,1.66,1.66,0,0,1-1.28-.51A1.8,1.8,0,0,1,422.91,425.56Zm6.72,0a1.64,1.64,0,0,1,1.76-1.79,1.85,1.85,0,0,1,1.34.47,1.75,1.75,0,0,1,.48,1.32,1.8,1.8,0,0,1-.48,1.28,1.76,1.76,0,0,1-1.34.51,1.68,1.68,0,0,1-1.28-.51A1.8,1.8,0,0,1,429.63,425.56Zm6.78,0a1.64,1.64,0,0,1,1.76-1.79,1.83,1.83,0,0,1,1.33.47,1.75,1.75,0,0,1,.48,1.32,1.8,1.8,0,0,1-.48,1.28,1.73,1.73,0,0,1-1.33.51,1.68,1.68,0,0,1-1.28-.51A1.8,1.8,0,0,1,436.41,425.56Z" transform="translate(-8.45 -5.67)" style="fill:#939598"/><path d="M284.85,167.78a14.9,14.9,0,0,1,2.38-.17,3.79,3.79,0,0,1,2.5.7,2.37,2.37,0,0,1,.83,1.88,2.63,2.63,0,0,1-.72,1.93,3.81,3.81,0,0,1-2.69.91,3.44,3.44,0,0,1-.76-.06v3.21h-1.54Zm1.54,4a3.16,3.16,0,0,0,.76.07c1.16,0,1.87-.58,1.87-1.57s-.66-1.45-1.73-1.45a4.07,4.07,0,0,0-.9.08Z" transform="translate(-8.45 -5.67)" style="fill:#9dc65a"/><path d="M291.69,172c0-.82,0-1.42-.05-2H293l.05,1.17h0a1.83,1.83,0,0,1,1.68-1.31,1.34,1.34,0,0,1,.36,0v1.47a1.87,1.87,0,0,0-.45-.05,1.37,1.37,0,0,0-1.39,1.18,2.23,2.23,0,0,0,0,.47v3.18h-1.56Z" transform="translate(-8.45 -5.67)" style="fill:#9dc65a"/><path d="M301.73,173.05a3,3,0,0,1-3.16,3.27,3,3,0,0,1-3.07-3.17,3,3,0,0,1,3.18-3.25A3,3,0,0,1,301.73,173.05Zm-4.63.07c0,1.18.59,2.07,1.52,2.07s1.51-.86,1.51-2.09c0-1-.42-2.07-1.5-2.07S297.1,172.09,297.1,173.12Z" transform="translate(-8.45 -5.67)" style="fill:#9dc65a"/><path d="M304.79,168.28V170h1.47v1.16h-1.47v2.71c0,.75.2,1.13.79,1.13a2.23,2.23,0,0,0,.6-.07l0,1.18a3.39,3.39,0,0,1-1.13.16,1.79,1.79,0,0,1-1.33-.5,2.48,2.48,0,0,1-.49-1.73V171.2h-.87V170h.87v-1.39Z" transform="translate(-8.45 -5.67)" style="fill:#9dc65a"/><path d="M313.2,173.05a3,3,0,0,1-3.16,3.27,3,3,0,0,1-3.08-3.17,3,3,0,0,1,3.18-3.25A3,3,0,0,1,313.2,173.05Zm-4.64.07c0,1.18.59,2.07,1.53,2.07s1.51-.86,1.51-2.09c0-1-.43-2.07-1.5-2.07S308.56,172.09,308.56,173.12Z" transform="translate(-8.45 -5.67)" style="fill:#9dc65a"/><path d="M319,176a4.44,4.44,0,0,1-1.73.31,3,3,0,0,1-3.17-3.14,3.17,3.17,0,0,1,3.42-3.27,4.09,4.09,0,0,1,1.5.28l-.27,1.17a2.68,2.68,0,0,0-1.18-.24,2,2,0,0,0,0,4,3,3,0,0,0,1.22-.25Z" transform="translate(-8.45 -5.67)" style="fill:#9dc65a"/><path d="M325.76,173.05a3,3,0,0,1-3.16,3.27,3,3,0,0,1-3.07-3.17,3,3,0,0,1,3.18-3.25A3,3,0,0,1,325.76,173.05Zm-4.64.07c0,1.18.59,2.07,1.53,2.07s1.51-.86,1.51-2.09c0-1-.43-2.07-1.5-2.07S321.12,172.09,321.12,173.12Z" transform="translate(-8.45 -5.67)" style="fill:#9dc65a"/><path d="M327,167.22h1.55v9H327Z" transform="translate(-8.45 -5.67)" style="fill:#9dc65a"/><path d="M330.2,174.75a3.42,3.42,0,0,0,1.57.45c.68,0,1-.29,1-.69s-.26-.63-1-.89c-1.2-.42-1.71-1.07-1.7-1.8,0-1.08.9-1.92,2.33-1.92a3.5,3.5,0,0,1,1.63.37l-.31,1.09a2.73,2.73,0,0,0-1.3-.36c-.55,0-.86.28-.86.65s.3.58,1.08.86c1.11.4,1.63,1,1.63,1.88,0,1.12-.87,1.92-2.49,1.92a3.89,3.89,0,0,1-1.87-.43Z" transform="translate(-8.45 -5.67)" style="fill:#9dc65a"/><path d="M472.5,61.54a5.29,5.29,0,0,1-2.2.39A4,4,0,0,1,466,57.64a4.28,4.28,0,0,1,4.55-4.48,4.8,4.8,0,0,1,2.06.37l-.34,1.24a4.05,4.05,0,0,0-1.66-.33,2.83,2.83,0,0,0-3,3.13,2.78,2.78,0,0,0,3,3.06,4.61,4.61,0,0,0,1.7-.31Z" transform="translate(-8.45 -5.67)" style="fill:#231f20"/><path d="M477.1,61.79l-.1-.68h0a2.23,2.23,0,0,1-1.81.82,1.82,1.82,0,0,1-1.94-1.82c0-1.55,1.38-2.34,3.65-2.33v-.1c0-.41-.16-1.08-1.25-1.07a3.22,3.22,0,0,0-1.65.46l-.31-1a4.45,4.45,0,0,1,2.23-.55,2.29,2.29,0,0,1,2.53,2.59v2.22a10.13,10.13,0,0,0,.09,1.47Zm-.2-3c-1.1,0-2.15.21-2.15,1.15a.82.82,0,0,0,.89.88,1.25,1.25,0,0,0,1.21-.85,1,1,0,0,0,0-.33Z" transform="translate(-8.45 -5.67)" style="fill:#231f20"/><path d="M484.56,61.61a4.4,4.4,0,0,1-1.73.32,3,3,0,0,1-3.17-3.14,3.17,3.17,0,0,1,3.42-3.27,4,4,0,0,1,1.5.28L484.3,57a2.63,2.63,0,0,0-1.17-.24,2,2,0,0,0,0,4,3.12,3.12,0,0,0,1.22-.24Z" transform="translate(-8.45 -5.67)" style="fill:#231f20"/><path d="M485.72,52.84h1.55v3.65h0a2.25,2.25,0,0,1,1.83-1c1.05,0,2.15.7,2.15,2.67v3.61h-1.56V58.35c0-.89-.32-1.57-1.18-1.57a1.28,1.28,0,0,0-1.2.87,1.37,1.37,0,0,0-.07.47v3.67h-1.55Z" transform="translate(-8.45 -5.67)" style="fill:#231f20"/><path d="M494,59.15a1.67,1.67,0,0,0,1.89,1.6,4.75,4.75,0,0,0,1.7-.28l.23,1.07a5.66,5.66,0,0,1-2.15.39,2.91,2.91,0,0,1-3.16-3.12,3,3,0,0,1,3-3.3c2,0,2.65,1.64,2.65,3a2.53,2.53,0,0,1-.06.65Zm2.7-1.08a1.33,1.33,0,0,0-1.28-1.5,1.53,1.53,0,0,0-1.43,1.5Z" transform="translate(-8.45 -5.67)" style="fill:#231f20"/><path d="M466.37,75.24a4.39,4.39,0,0,0,2.05.54c1,0,1.55-.47,1.55-1.16s-.43-1-1.51-1.41c-1.4-.5-2.3-1.26-2.3-2.48,0-1.39,1.17-2.44,3-2.44a4.58,4.58,0,0,1,2,.42L470.84,70a3.69,3.69,0,0,0-1.7-.41c-1,0-1.41.53-1.41,1s.5,1,1.63,1.39c1.48.56,2.19,1.31,2.19,2.53s-1,2.55-3.23,2.55a4.9,4.9,0,0,1-2.3-.54Z" transform="translate(-8.45 -5.67)" style="fill:#231f20"/><path d="M474.06,74.29a1.68,1.68,0,0,0,1.9,1.6,4.5,4.5,0,0,0,1.69-.29l.23,1.07a5.38,5.38,0,0,1-2.14.39A2.91,2.91,0,0,1,472.57,74a3,3,0,0,1,3-3.3c2,0,2.64,1.64,2.64,3a3.33,3.33,0,0,1-.05.65Zm2.7-1.08a1.32,1.32,0,0,0-1.28-1.5,1.52,1.52,0,0,0-1.42,1.5Z" transform="translate(-8.45 -5.67)" style="fill:#231f20"/><path d="M479.47,72.76c0-.82,0-1.43-.05-2h1.35l.06,1.16h0a1.83,1.83,0,0,1,1.68-1.3,1.46,1.46,0,0,1,.37,0v1.46a2.92,2.92,0,0,0-.46,0,1.37,1.37,0,0,0-1.39,1.18,2.19,2.19,0,0,0,0,.46v3.19h-1.56Z" transform="translate(-8.45 -5.67)" style="fill:#231f20"/><path d="M485.92,70.79l1,3.12a14.74,14.74,0,0,1,.42,1.53h0c.11-.51.25-1,.42-1.53l1-3.12h1.63l-2.34,6.14h-1.53l-2.28-6.14Z" transform="translate(-8.45 -5.67)" style="fill:#231f20"/><path d="M493,69.07a.83.83,0,0,1-.89.84.84.84,0,1,1,.89-.84Zm-1.65,7.86V70.79h1.56v6.14Z" transform="translate(-8.45 -5.67)" style="fill:#231f20"/><path d="M499.08,76.75a4.46,4.46,0,0,1-1.74.31,3,3,0,0,1-3.16-3.14,3.16,3.16,0,0,1,3.41-3.27,4.09,4.09,0,0,1,1.5.28l-.27,1.17a2.65,2.65,0,0,0-1.18-.24,2,2,0,0,0,0,4,3,3,0,0,0,1.22-.24Z" transform="translate(-8.45 -5.67)" style="fill:#231f20"/><path d="M501.09,74.29a1.68,1.68,0,0,0,1.9,1.6,4.5,4.5,0,0,0,1.69-.29l.23,1.07a5.43,5.43,0,0,1-2.15.39A2.91,2.91,0,0,1,499.6,74a3,3,0,0,1,3-3.3c2,0,2.64,1.64,2.64,3a3.33,3.33,0,0,1-.05.65Zm2.7-1.08a1.32,1.32,0,0,0-1.28-1.5,1.51,1.51,0,0,0-1.42,1.5Z" transform="translate(-8.45 -5.67)" style="fill:#231f20"/><path d="M506.43,75.5A3.42,3.42,0,0,0,508,76c.68,0,1-.29,1-.69s-.25-.63-1-.9c-1.21-.41-1.71-1.06-1.7-1.79,0-1.08.9-1.92,2.33-1.92a3.5,3.5,0,0,1,1.63.37l-.31,1.09a2.76,2.76,0,0,0-1.3-.36c-.55,0-.86.27-.86.65s.3.58,1.07.86c1.12.4,1.64,1,1.64,1.87,0,1.12-.87,1.93-2.49,1.93a4,4,0,0,1-1.87-.43Z" transform="translate(-8.45 -5.67)" style="fill:#231f20"/><path d="M472.5,235a5.51,5.51,0,0,1-2.2.38A4,4,0,0,1,466,231a4.28,4.28,0,0,1,4.55-4.48,4.76,4.76,0,0,1,2.06.38l-.34,1.23a4.05,4.05,0,0,0-1.66-.33,2.83,2.83,0,0,0-3,3.13,2.78,2.78,0,0,0,3,3.06,4.61,4.61,0,0,0,1.7-.31Z" transform="translate(-8.45 -5.67)" style="fill:#f7941d"/><path d="M477.1,235.2l-.1-.69h0a2.24,2.24,0,0,1-1.81.83,1.82,1.82,0,0,1-1.94-1.83c0-1.55,1.38-2.34,3.65-2.33v-.1c0-.4-.16-1.07-1.25-1.07a3.22,3.22,0,0,0-1.65.46l-.31-1a4.45,4.45,0,0,1,2.23-.55,2.29,2.29,0,0,1,2.53,2.59v2.22a10.28,10.28,0,0,0,.09,1.48Zm-.2-3c-1.1,0-2.15.21-2.15,1.15a.83.83,0,0,0,.89.89,1.26,1.26,0,0,0,1.21-.85,1,1,0,0,0,0-.34Z" transform="translate(-8.45 -5.67)" style="fill:#f7941d"/><path d="M484.56,235a4.4,4.4,0,0,1-1.73.32,3,3,0,0,1-3.17-3.14,3.17,3.17,0,0,1,3.42-3.27,4,4,0,0,1,1.5.28l-.28,1.17a2.5,2.5,0,0,0-1.17-.24,2,2,0,0,0,0,4,3,3,0,0,0,1.22-.24Z" transform="translate(-8.45 -5.67)" style="fill:#f7941d"/><path d="M485.72,226.24h1.55v3.65h0a2.08,2.08,0,0,1,.77-.7,2.2,2.2,0,0,1,1.06-.28c1.05,0,2.15.7,2.15,2.67v3.62h-1.56v-3.45c0-.89-.32-1.57-1.18-1.57a1.28,1.28,0,0,0-1.2.87,1.41,1.41,0,0,0-.07.47v3.68h-1.55Z" transform="translate(-8.45 -5.67)" style="fill:#f7941d"/><path d="M494,232.55a1.67,1.67,0,0,0,1.89,1.6,4.75,4.75,0,0,0,1.7-.28l.23,1.07a5.66,5.66,0,0,1-2.15.39,2.91,2.91,0,0,1-3.16-3.12,3,3,0,0,1,3-3.3c2,0,2.65,1.65,2.65,3a2.53,2.53,0,0,1-.06.65Zm2.7-1.08a1.32,1.32,0,0,0-1.28-1.49,1.52,1.52,0,0,0-1.43,1.49Z" transform="translate(-8.45 -5.67)" style="fill:#f7941d"/><path d="M466.4,241.83H468V249h3.5v1.3H466.4Z" transform="translate(-8.45 -5.67)" style="fill:#f7941d"/><path d="M474.21,242.47a.83.83,0,0,1-.89.84.84.84,0,1,1,.89-.84Zm-1.65,7.86v-6.14h1.56v6.14Z" transform="translate(-8.45 -5.67)" style="fill:#f7941d"/><path d="M475.74,250.33c0-.41.05-1.09.05-1.72v-7.24h1.55V245h0a2.21,2.21,0,0,1,2-1c1.5,0,2.57,1.24,2.56,3.11,0,2.21-1.4,3.31-2.79,3.31a2.09,2.09,0,0,1-1.93-1.06h0l-.07.92Zm1.6-2.54a2.1,2.1,0,0,0,0,.37,1.41,1.41,0,0,0,1.37,1.08c1,0,1.57-.77,1.57-2,0-1.08-.53-2-1.55-2a1.45,1.45,0,0,0-1.38,1.13,2.42,2.42,0,0,0-.05.41Z" transform="translate(-8.45 -5.67)" style="fill:#f7941d"/><path d="M483.17,246.16c0-.82,0-1.42-.05-2h1.34l.06,1.17h0a1.84,1.84,0,0,1,1.69-1.31,1.94,1.94,0,0,1,.36,0v1.47a1.93,1.93,0,0,0-.45-.05,1.38,1.38,0,0,0-1.4,1.18,3.3,3.3,0,0,0,0,.47v3.18h-1.55Z" transform="translate(-8.45 -5.67)" style="fill:#f7941d"/><path d="M491,250.33l-.1-.68h0a2.26,2.26,0,0,1-1.81.82,1.82,1.82,0,0,1-1.94-1.83c0-1.55,1.38-2.33,3.64-2.32v-.1c0-.41-.15-1.08-1.24-1.07a3.32,3.32,0,0,0-1.65.45l-.31-1a4.35,4.35,0,0,1,2.23-.55,2.29,2.29,0,0,1,2.53,2.59v2.21a10.28,10.28,0,0,0,.09,1.48Zm-.2-3c-1.1,0-2.15.22-2.15,1.16a.82.82,0,0,0,.89.88,1.26,1.26,0,0,0,1.21-.85,1,1,0,0,0,.05-.34Z" transform="translate(-8.45 -5.67)" style="fill:#f7941d"/><path d="M494,246.16c0-.82,0-1.42-.05-2h1.35l.05,1.17h.05a1.83,1.83,0,0,1,1.68-1.31,1.94,1.94,0,0,1,.36,0v1.47a1.87,1.87,0,0,0-.45-.05,1.37,1.37,0,0,0-1.39,1.18,2.29,2.29,0,0,0,0,.47v3.18H494Z" transform="translate(-8.45 -5.67)" style="fill:#f7941d"/><path d="M500.1,242.47a.82.82,0,0,1-.88.84.84.84,0,1,1,.88-.84Zm-1.64,7.86v-6.14H500v6.14Z" transform="translate(-8.45 -5.67)" style="fill:#f7941d"/><path d="M502.78,247.69a1.68,1.68,0,0,0,1.9,1.6,4.73,4.73,0,0,0,1.69-.28l.23,1.07a5.58,5.58,0,0,1-2.15.39,2.92,2.92,0,0,1-3.16-3.12,3,3,0,0,1,3-3.3c2,0,2.64,1.64,2.64,3a3.26,3.26,0,0,1-.05.65Zm2.7-1.08a1.32,1.32,0,0,0-1.28-1.5,1.51,1.51,0,0,0-1.42,1.5Z" transform="translate(-8.45 -5.67)" style="fill:#f7941d"/><path d="M508.12,248.9a3.3,3.3,0,0,0,1.57.45c.68,0,1-.28,1-.69s-.25-.62-1-.89c-1.21-.41-1.71-1.07-1.7-1.8,0-1.08.9-1.92,2.33-1.92a3.5,3.5,0,0,1,1.63.37l-.31,1.09a2.76,2.76,0,0,0-1.3-.36c-.55,0-.86.28-.86.66s.3.57,1.07.86c1.12.39,1.64,1,1.64,1.87,0,1.12-.87,1.93-2.49,1.93a3.85,3.85,0,0,1-1.87-.44Z" transform="translate(-8.45 -5.67)" style="fill:#f7941d"/><path d="M466.4,387.43a14.89,14.89,0,0,1,2.35-.18,4,4,0,0,1,2.63.69,2.13,2.13,0,0,1,.73,1.7,2.25,2.25,0,0,1-1.55,2.13v0a2.11,2.11,0,0,1,1.19,1.64,18.29,18.29,0,0,0,.67,2.37h-1.59a10.25,10.25,0,0,1-.58-2c-.24-1.11-.65-1.47-1.53-1.49h-.78v3.49H466.4Zm1.54,3.76h.92c1.05,0,1.7-.56,1.7-1.4s-.65-1.36-1.66-1.37a4.32,4.32,0,0,0-1,.08Z" transform="translate(-8.45 -5.67)" style="fill:#007dc5"/><path d="M473.57,387.43a13.78,13.78,0,0,1,2.38-.18,3.8,3.8,0,0,1,2.51.7,2.4,2.4,0,0,1,.83,1.88,2.63,2.63,0,0,1-.72,1.93,3.77,3.77,0,0,1-2.69.91,3.44,3.44,0,0,1-.76-.06v3.21h-1.55Zm1.55,4a3.11,3.11,0,0,0,.76.07c1.16,0,1.87-.58,1.87-1.57s-.66-1.45-1.73-1.45a4.07,4.07,0,0,0-.9.08Z" transform="translate(-8.45 -5.67)" style="fill:#007dc5"/><path d="M486.73,395.57a5.6,5.6,0,0,1-2.21.38,4,4,0,0,1-4.34-4.28,4.28,4.28,0,0,1,4.55-4.49,4.69,4.69,0,0,1,2.06.38l-.33,1.24a4.09,4.09,0,0,0-1.66-.33,2.83,2.83,0,0,0-3,3.12,2.78,2.78,0,0,0,3,3.06,4.56,4.56,0,0,0,1.69-.3Z" transform="translate(-8.45 -5.67)" style="fill:#007dc5"/><path d="M466.4,402.45H468v7.2h3.5V411H466.4Z" transform="translate(-8.45 -5.67)" style="fill:#007dc5"/><path d="M474.21,403.1a.83.83,0,0,1-.89.83.84.84,0,1,1,.89-.83ZM472.56,411v-6.15h1.56V411Z" transform="translate(-8.45 -5.67)" style="fill:#007dc5"/><path d="M475.74,411c0-.42.05-1.1.05-1.73V402h1.55v3.66h0a2.21,2.21,0,0,1,2-1c1.5,0,2.57,1.24,2.56,3.11,0,2.21-1.4,3.31-2.79,3.31a2.1,2.1,0,0,1-1.93-1.07h0l-.07.93Zm1.6-2.54a2.09,2.09,0,0,0,0,.36,1.42,1.42,0,0,0,1.37,1.09c1,0,1.57-.78,1.57-2,0-1.08-.53-2-1.55-2a1.45,1.45,0,0,0-1.38,1.14,2.3,2.3,0,0,0-.05.4Z" transform="translate(-8.45 -5.67)" style="fill:#007dc5"/><path d="M483.17,406.79c0-.82,0-1.43-.05-2h1.34l.06,1.17h0a1.84,1.84,0,0,1,1.69-1.3,1.34,1.34,0,0,1,.36,0v1.46a2,2,0,0,0-.45,0,1.38,1.38,0,0,0-1.4,1.17,3.43,3.43,0,0,0,0,.47V411h-1.55Z" transform="translate(-8.45 -5.67)" style="fill:#007dc5"/><path d="M491,411l-.1-.69h0a2.24,2.24,0,0,1-1.81.83,1.82,1.82,0,0,1-1.94-1.83c0-1.55,1.38-2.34,3.64-2.33v-.1c0-.4-.15-1.07-1.24-1.07a3.22,3.22,0,0,0-1.65.46l-.31-1a4.46,4.46,0,0,1,2.23-.54,2.29,2.29,0,0,1,2.53,2.59v2.21a10.28,10.28,0,0,0,.09,1.48Zm-.2-3c-1.1,0-2.15.22-2.15,1.15a.83.83,0,0,0,.89.89,1.26,1.26,0,0,0,1.21-.85,1,1,0,0,0,.05-.34Z" transform="translate(-8.45 -5.67)" style="fill:#007dc5"/><path d="M494,406.79c0-.82,0-1.43-.05-2h1.35l.05,1.17h.05a1.83,1.83,0,0,1,1.68-1.3,1.34,1.34,0,0,1,.36,0v1.46a1.92,1.92,0,0,0-.45,0,1.37,1.37,0,0,0-1.39,1.17,2.35,2.35,0,0,0,0,.47V411H494Z" transform="translate(-8.45 -5.67)" style="fill:#007dc5"/><path d="M500.1,403.1a.82.82,0,0,1-.88.83.84.84,0,1,1,0-1.67A.81.81,0,0,1,500.1,403.1ZM498.46,411v-6.15H500V411Z" transform="translate(-8.45 -5.67)" style="fill:#007dc5"/><path d="M502.78,408.32a1.68,1.68,0,0,0,1.9,1.6,4.71,4.71,0,0,0,1.69-.29l.23,1.07a5.58,5.58,0,0,1-2.15.39,2.91,2.91,0,0,1-3.16-3.11,3,3,0,0,1,3-3.3c2,0,2.64,1.64,2.64,3a3.45,3.45,0,0,1-.05.66Zm2.7-1.09a1.31,1.31,0,0,0-1.28-1.49,1.5,1.5,0,0,0-1.42,1.49Z" transform="translate(-8.45 -5.67)" style="fill:#007dc5"/><path d="M508.12,409.53a3.42,3.42,0,0,0,1.57.45c.68,0,1-.29,1-.69s-.25-.63-1-.9c-1.21-.41-1.71-1.06-1.7-1.79,0-1.08.9-1.92,2.33-1.92a3.51,3.51,0,0,1,1.63.36l-.31,1.09a2.9,2.9,0,0,0-1.3-.35c-.55,0-.86.27-.86.65s.3.58,1.07.86c1.12.4,1.64,1,1.64,1.87,0,1.12-.87,1.93-2.49,1.93a4,4,0,0,1-1.87-.43Z" transform="translate(-8.45 -5.67)" style="fill:#007dc5"/><path d="M200.5,357.65a15.13,15.13,0,0,1,2.36-.18,3.93,3.93,0,0,1,2.62.69,2.14,2.14,0,0,1,.74,1.71,2.25,2.25,0,0,1-1.55,2.12v0a2.13,2.13,0,0,1,1.19,1.64,18.29,18.29,0,0,0,.67,2.37h-1.6a11.09,11.09,0,0,1-.57-2c-.24-1.11-.65-1.47-1.53-1.49h-.78V366H200.5Zm1.55,3.76H203c1.05,0,1.7-.56,1.7-1.4s-.65-1.36-1.66-1.37a4.32,4.32,0,0,0-1,.08Z" transform="translate(-8.45 -5.67)" style="fill:#007dc5"/><path d="M207.68,357.65a13.78,13.78,0,0,1,2.38-.18,3.77,3.77,0,0,1,2.5.7,2.37,2.37,0,0,1,.84,1.88,2.58,2.58,0,0,1-.73,1.93,3.73,3.73,0,0,1-2.69.91,3.44,3.44,0,0,1-.76-.06V366h-1.54Zm1.54,4a3.22,3.22,0,0,0,.76.07c1.17,0,1.87-.58,1.87-1.57s-.65-1.44-1.73-1.44a4.4,4.4,0,0,0-.9.07Z" transform="translate(-8.45 -5.67)" style="fill:#007dc5"/><path d="M220.84,365.79a5.39,5.39,0,0,1-2.21.39,4,4,0,0,1-4.34-4.29,4.28,4.28,0,0,1,4.55-4.48,4.73,4.73,0,0,1,2.06.37l-.33,1.24a4.09,4.09,0,0,0-1.66-.33,2.82,2.82,0,0,0-3,3.12,2.78,2.78,0,0,0,3,3.07,4.59,4.59,0,0,0,1.69-.31Z" transform="translate(-8.45 -5.67)" style="fill:#007dc5"/><path d="M224.73,364.35a4.28,4.28,0,0,0,2.06.54c1,0,1.54-.46,1.54-1.16s-.43-1-1.51-1.41c-1.4-.5-2.3-1.25-2.3-2.47,0-1.4,1.17-2.44,3-2.44a4.45,4.45,0,0,1,2,.42l-.37,1.25a3.71,3.71,0,0,0-1.7-.4c-1,0-1.4.52-1.4,1,0,.65.49,1,1.62,1.39,1.48.57,2.19,1.31,2.19,2.53s-1,2.56-3.23,2.56a5,5,0,0,1-2.29-.54Z" transform="translate(-8.45 -5.67)" style="fill:#007dc5"/><path d="M232.42,363.4a1.67,1.67,0,0,0,1.9,1.6,4.73,4.73,0,0,0,1.69-.28l.23,1.07a5.56,5.56,0,0,1-2.14.39,2.92,2.92,0,0,1-3.17-3.12,3,3,0,0,1,3-3.3c2,0,2.65,1.64,2.65,3a3.09,3.09,0,0,1-.06.65Zm2.7-1.08a1.32,1.32,0,0,0-1.28-1.5,1.52,1.52,0,0,0-1.42,1.5Z" transform="translate(-8.45 -5.67)" style="fill:#007dc5"/><path d="M237.83,361.88c0-.83,0-1.43-.05-2h1.35l.06,1.17h0a1.83,1.83,0,0,1,1.68-1.31,1.45,1.45,0,0,1,.37,0v1.46a2,2,0,0,0-.46-.05,1.37,1.37,0,0,0-1.39,1.18,2.29,2.29,0,0,0,0,.47V366h-1.56Z" transform="translate(-8.45 -5.67)" style="fill:#007dc5"/><path d="M244.28,359.9l1,3.12a14.9,14.9,0,0,1,.42,1.54h0c.11-.51.25-1,.42-1.54l1-3.12h1.63L246.41,366h-1.53l-2.28-6.14Z" transform="translate(-8.45 -5.67)" style="fill:#007dc5"/><path d="M250.63,363.4a1.68,1.68,0,0,0,1.9,1.6,4.75,4.75,0,0,0,1.7-.28l.23,1.07a5.66,5.66,0,0,1-2.15.39,2.91,2.91,0,0,1-3.16-3.12,3,3,0,0,1,3-3.3c2,0,2.65,1.64,2.65,3a3.09,3.09,0,0,1-.06.65Zm2.71-1.08a1.33,1.33,0,0,0-1.29-1.5,1.52,1.52,0,0,0-1.42,1.5Z" transform="translate(-8.45 -5.67)" style="fill:#007dc5"/><path d="M256.05,361.88c0-.83,0-1.43-.05-2h1.34l.06,1.17h0a1.84,1.84,0,0,1,1.69-1.31,1.32,1.32,0,0,1,.36,0v1.46a2,2,0,0,0-.46-.05,1.37,1.37,0,0,0-1.39,1.18,3.3,3.3,0,0,0,0,.47V366h-1.55Z" transform="translate(-8.45 -5.67)" style="fill:#007dc5"/><line x1="1" y1="139.38" x2="506.42" y2="139.38" style="fill:none;stroke:#b1babf;stroke-miterlimit:10;stroke-width:3px"/><line x1="1" y1="329.85" x2="506.42" y2="329.85" style="fill:none;stroke:#b1babf;stroke-miterlimit:10;stroke-width:3px"/><path d="M52.23,38.65H50.31v-1h5.1v1H53.47v5.7H52.23Z" transform="translate(-8.45 -5.67)" style="fill:#231f20"/><path d="M56.07,39.48l.51,2.21c.12.52.23,1,.31,1.58h0c.1-.53.25-1.07.39-1.57L58,39.48h1l.61,2.16c.15.57.29,1.1.39,1.63h0c.08-.53.19-1.06.33-1.63l.53-2.16H62l-1.52,4.87H59.36l-.58-2a14.93,14.93,0,0,1-.37-1.56h0A11.05,11.05,0,0,1,58,42.36l-.62,2H56.26l-1.44-4.87Z" transform="translate(-8.45 -5.67)" style="fill:#231f20"/><path d="M63.56,42.25a1.33,1.33,0,0,0,1.51,1.27,3.86,3.86,0,0,0,1.34-.22l.18.84a4.3,4.3,0,0,1-1.7.31A2.3,2.3,0,0,1,62.39,42a2.41,2.41,0,0,1,2.38-2.62,2.11,2.11,0,0,1,2.09,2.37,2.8,2.8,0,0,1,0,.51Zm2.14-.85a1,1,0,0,0-1-1.19,1.21,1.21,0,0,0-1.13,1.19Z" transform="translate(-8.45 -5.67)" style="fill:#231f20"/><path d="M67.86,40.93c0-.56,0-1,0-1.45h1.05l.06.72h0a1.68,1.68,0,0,1,1.5-.83,1.39,1.39,0,0,1,1.35.9h0a1.94,1.94,0,0,1,.6-.61,1.64,1.64,0,0,1,1-.29c.8,0,1.62.55,1.62,2.11v2.87h-1.2V41.66c0-.82-.28-1.29-.87-1.29a.92.92,0,0,0-.85.65,1.3,1.3,0,0,0-.07.41v2.92h-1.2V41.53c0-.68-.27-1.16-.84-1.16a1,1,0,0,0-.88.69,1.4,1.4,0,0,0-.06.41v2.88h-1.2Z" transform="translate(-8.45 -5.67)" style="fill:#231f20"/><path d="M79.91,44.2a3.5,3.5,0,0,1-1.37.25A2.34,2.34,0,0,1,76,42a2.51,2.51,0,0,1,2.7-2.59,3,3,0,0,1,1.19.23l-.22.92a2.13,2.13,0,0,0-.93-.19,1.58,1.58,0,0,0,0,3.15,2.39,2.39,0,0,0,1-.19Z" transform="translate(-8.45 -5.67)" style="fill:#231f20"/><path d="M83.59,44.35l-.09-.54h0a1.77,1.77,0,0,1-1.43.65A1.45,1.45,0,0,1,80.5,43c0-1.23,1.1-1.85,2.89-1.84v-.08c0-.32-.13-.85-1-.85a2.64,2.64,0,0,0-1.31.36l-.24-.8a3.57,3.57,0,0,1,1.76-.43,1.82,1.82,0,0,1,2,2.05v1.76a6.57,6.57,0,0,0,.08,1.17ZM83.42,42c-.87,0-1.7.18-1.7.92a.66.66,0,0,0,.71.7,1,1,0,0,0,1-.68,1.15,1.15,0,0,0,0-.26Z" transform="translate(-8.45 -5.67)" style="fill:#231f20"/><path d="M89.5,44.2a3.52,3.52,0,0,1-1.38.25A2.34,2.34,0,0,1,85.62,42a2.51,2.51,0,0,1,2.7-2.59,3,3,0,0,1,1.19.23l-.22.92a2.13,2.13,0,0,0-.93-.19,1.58,1.58,0,0,0,0,3.15,2.39,2.39,0,0,0,1-.19Z" transform="translate(-8.45 -5.67)" style="fill:#231f20"/><path d="M90.42,37.25h1.23v2.9h0a1.73,1.73,0,0,1,.61-.56,1.7,1.7,0,0,1,.84-.22c.83,0,1.7.55,1.7,2.11v2.87H93.59V41.62c0-.71-.25-1.24-.93-1.24a1,1,0,0,0-1,.69,1,1,0,0,0,0,.37v2.91H90.42Z" transform="translate(-8.45 -5.67)" style="fill:#231f20"/><path d="M97,42.25a1.33,1.33,0,0,0,1.51,1.27,3.86,3.86,0,0,0,1.34-.22l.18.84a4.3,4.3,0,0,1-1.7.31A2.3,2.3,0,0,1,95.83,42a2.41,2.41,0,0,1,2.38-2.62,2.11,2.11,0,0,1,2.09,2.37,2.8,2.8,0,0,1,0,.51Zm2.14-.85a1,1,0,0,0-1-1.19A1.21,1.21,0,0,0,97,41.4Z" transform="translate(-8.45 -5.67)" style="fill:#231f20"/><path d="M184.62,43a3.49,3.49,0,0,0,1.63.42c.78,0,1.22-.36,1.22-.92s-.34-.8-1.19-1.11c-1.12-.4-1.83-1-1.83-2s.93-1.93,2.39-1.93a3.53,3.53,0,0,1,1.61.33l-.29,1a2.94,2.94,0,0,0-1.35-.32c-.78,0-1.11.42-1.11.81s.39.76,1.29,1.11c1.17.44,1.73,1,1.73,2s-.82,2-2.55,2a3.81,3.81,0,0,1-1.82-.43Z" transform="translate(-8.45 -5.67)" style="fill:#231f20"/><path d="M189.76,37.25H191v7.1h-1.23Z" transform="translate(-8.45 -5.67)" style="fill:#231f20"/><path d="M193.63,38.12a.65.65,0,0,1-.7.66.64.64,0,0,1-.67-.66.66.66,0,0,1,.69-.67A.65.65,0,0,1,193.63,38.12Zm-1.3,6.23V39.48h1.23v4.87Z" transform="translate(-8.45 -5.67)" style="fill:#231f20"/><path d="M194.89,40.93c0-.56,0-1,0-1.45h1.05l.06.72h0a1.68,1.68,0,0,1,1.5-.83,1.39,1.39,0,0,1,1.35.9h0a1.94,1.94,0,0,1,.6-.61,1.66,1.66,0,0,1,1-.29c.8,0,1.62.55,1.62,2.11v2.87h-1.2V41.66c0-.82-.28-1.29-.87-1.29a.92.92,0,0,0-.85.65,1.3,1.3,0,0,0-.07.41v2.92h-1.19V41.53c0-.68-.28-1.16-.84-1.16a1,1,0,0,0-.89.69,1.4,1.4,0,0,0-.06.41v2.88h-1.2Z" transform="translate(-8.45 -5.67)" style="fill:#231f20"/><path d="M206.94,44.2a3.5,3.5,0,0,1-1.37.25A2.34,2.34,0,0,1,203.06,42a2.51,2.51,0,0,1,2.7-2.59,3,3,0,0,1,1.19.23l-.22.92a2.13,2.13,0,0,0-.93-.19,1.58,1.58,0,0,0,0,3.15,2.39,2.39,0,0,0,1-.19Z" transform="translate(-8.45 -5.67)" style="fill:#231f20"/><path d="M210.62,44.35l-.09-.54h0a1.77,1.77,0,0,1-1.43.65A1.45,1.45,0,0,1,207.53,43c0-1.23,1.1-1.85,2.89-1.84v-.08c0-.32-.13-.85-1-.85a2.64,2.64,0,0,0-1.31.36l-.24-.8a3.57,3.57,0,0,1,1.76-.43,1.82,1.82,0,0,1,2,2.05v1.76a6.57,6.57,0,0,0,.08,1.17ZM210.45,42c-.87,0-1.7.18-1.7.92a.66.66,0,0,0,.71.7,1,1,0,0,0,1-.68,1.15,1.15,0,0,0,0-.26Z" transform="translate(-8.45 -5.67)" style="fill:#231f20"/><path d="M216.53,44.2a3.5,3.5,0,0,1-1.37.25A2.34,2.34,0,0,1,212.65,42a2.51,2.51,0,0,1,2.7-2.59,3,3,0,0,1,1.19.23l-.22.92a2.13,2.13,0,0,0-.93-.19,1.58,1.58,0,0,0,0,3.15,2.39,2.39,0,0,0,1-.19Z" transform="translate(-8.45 -5.67)" style="fill:#231f20"/><path d="M217.45,37.25h1.23v2.9h0a1.73,1.73,0,0,1,.61-.56,1.7,1.7,0,0,1,.84-.22c.83,0,1.7.55,1.7,2.11v2.87h-1.23V41.62c0-.71-.25-1.24-.93-1.24a1,1,0,0,0-1,.69,1,1,0,0,0,0,.37v2.91h-1.23Z" transform="translate(-8.45 -5.67)" style="fill:#231f20"/><path d="M224,42.25a1.33,1.33,0,0,0,1.51,1.27,3.86,3.86,0,0,0,1.34-.22l.18.84a4.3,4.3,0,0,1-1.7.31,2.3,2.3,0,0,1-2.5-2.46,2.41,2.41,0,0,1,2.38-2.62,2.11,2.11,0,0,1,2.09,2.37,2.8,2.8,0,0,1,0,.51Zm2.14-.85a1,1,0,0,0-1-1.19A1.21,1.21,0,0,0,224,41.4Z" transform="translate(-8.45 -5.67)" style="fill:#231f20"/><path d="M308.26,87.37a3.48,3.48,0,0,0,1.62.42c.79,0,1.23-.36,1.23-.92s-.34-.8-1.19-1.11c-1.12-.4-1.83-1-1.83-2s.92-1.93,2.39-1.93a3.53,3.53,0,0,1,1.61.33l-.29,1a2.94,2.94,0,0,0-1.35-.32c-.78,0-1.11.42-1.11.81s.39.76,1.29,1.11c1.17.44,1.73,1,1.73,2s-.82,2-2.55,2a3.88,3.88,0,0,1-1.83-.43Z" transform="translate(-8.45 -5.67)" style="fill:#fff"/><path d="M314.82,86.8l-.57,1.91H313L315.14,82h1.56l2.19,6.74h-1.32L317,86.8Zm1.94-.93-.53-1.66c-.13-.41-.24-.87-.35-1.26h0c-.1.39-.2.86-.32,1.26L315,85.87Z" transform="translate(-8.45 -5.67)" style="fill:#fff"/><path d="M319.74,85.41c0-.66,0-1.14,0-1.57h1.06l.05.93h0a1.45,1.45,0,0,1,1.33-1,1.23,1.23,0,0,1,.29,0v1.16a1.23,1.23,0,0,0-.36,0,1.08,1.08,0,0,0-1.1.93,2.13,2.13,0,0,0,0,.37v2.53h-1.23Z" transform="translate(-8.45 -5.67)" style="fill:#fff"/><path d="M323.31,85.41c0-.66,0-1.14,0-1.57h1.06l.05.93h0a1.45,1.45,0,0,1,1.33-1,1.29,1.29,0,0,1,.29,0v1.16a1.23,1.23,0,0,0-.36,0,1.08,1.08,0,0,0-1.1.93,2.13,2.13,0,0,0,0,.37v2.53h-1.23Z" transform="translate(-8.45 -5.67)" style="fill:#fff"/><path d="M329.52,88.71l-.09-.54h0a1.77,1.77,0,0,1-1.43.65,1.45,1.45,0,0,1-1.54-1.45c0-1.23,1.1-1.85,2.89-1.84v-.08c0-.32-.13-.85-1-.85A2.64,2.64,0,0,0,327,85l-.24-.8a3.57,3.57,0,0,1,1.76-.43,1.82,1.82,0,0,1,2,2v1.76a7.81,7.81,0,0,0,.07,1.17Zm-.17-2.39c-.87,0-1.7.18-1.7.92a.66.66,0,0,0,.71.7,1,1,0,0,0,1-.68,1.15,1.15,0,0,0,0-.26Z" transform="translate(-8.45 -5.67)" style="fill:#fff"/><path d="M332.33,83.84l.87,2.61c.1.3.21.67.28.94h0c.07-.27.16-.64.25-1l.77-2.6h1.31l-1.22,3.32a7.43,7.43,0,0,1-1.69,3.13,2.59,2.59,0,0,1-1.29.62l-.28-1a2.52,2.52,0,0,0,.71-.34,2.12,2.12,0,0,0,.68-.78.52.52,0,0,0,.07-.21.58.58,0,0,0-.06-.24L331,83.84Z" transform="translate(-8.45 -5.67)" style="fill:#fff"/><path d="M335,89.92a16.2,16.2,0,0,0,.67-2.64l1.29-.1a13.3,13.3,0,0,1-1.12,2.66Z" transform="translate(-8.45 -5.67)" style="fill:#fff"/><path d="M340.05,82h1.23v5.7h2.77v1h-4Z" transform="translate(-8.45 -5.67)" style="fill:#fff"/><path d="M346.24,82.48a.65.65,0,0,1-.7.66.63.63,0,0,1-.67-.66.69.69,0,0,1,1.37,0Zm-1.3,6.23V83.84h1.23v4.87Z" transform="translate(-8.45 -5.67)" style="fill:#fff"/><path d="M347.44,87.58a2.79,2.79,0,0,0,1.24.35c.54,0,.78-.23.78-.55s-.2-.49-.8-.71c-1-.32-1.34-.84-1.34-1.42,0-.85.71-1.52,1.85-1.52a2.93,2.93,0,0,1,1.29.29l-.25.87a2.15,2.15,0,0,0-1-.28c-.43,0-.68.21-.68.51s.24.46.85.68c.89.32,1.3.77,1.3,1.48,0,.89-.69,1.53-2,1.53a3.14,3.14,0,0,1-1.48-.34Z" transform="translate(-8.45 -5.67)" style="fill:#fff"/><path d="M353.08,82.45v1.39h1.17v.92h-1.17v2.15c0,.59.15.89.63.89a1.81,1.81,0,0,0,.47,0l0,.94a3.14,3.14,0,0,1-.9.12,1.42,1.42,0,0,1-1.06-.4,2,2,0,0,1-.38-1.36V84.76h-.69v-.92h.69v-1.1Z" transform="translate(-8.45 -5.67)" style="fill:#fff"/><path d="M355,88a.75.75,0,0,1,.77-.8.8.8,0,0,1,0,1.59A.75.75,0,0,1,355,88Z" transform="translate(-8.45 -5.67)" style="fill:#fff"/><path d="M357.32,88a.75.75,0,0,1,.77-.8.8.8,0,0,1,0,1.59A.75.75,0,0,1,357.32,88Z" transform="translate(-8.45 -5.67)" style="fill:#fff"/><path d="M359.68,88a.75.75,0,0,1,.77-.8.8.8,0,0,1,0,1.59A.75.75,0,0,1,359.68,88Z" transform="translate(-8.45 -5.67)" style="fill:#fff"/><rect x="278.43" y="93.23" width="102.54" height="20.88" style="fill:#d5569f"/><path d="M327.7,111.35a3.36,3.36,0,0,0,1.62.43c.79,0,1.23-.37,1.23-.92s-.34-.81-1.2-1.12c-1.11-.39-1.82-1-1.82-2s.92-1.93,2.39-1.93a3.67,3.67,0,0,1,1.61.33l-.29,1a2.94,2.94,0,0,0-1.35-.32c-.78,0-1.11.41-1.11.81s.39.76,1.29,1.1c1.17.45,1.73,1,1.73,2s-.82,2-2.56,2a4,4,0,0,1-1.82-.43Z" transform="translate(-8.45 -5.67)" style="fill:#fff"/><path d="M332.84,105.6h1.23v7.09h-1.23Z" transform="translate(-8.45 -5.67)" style="fill:#fff"/><path d="M338.14,112.69l-.08-.54h0a1.79,1.79,0,0,1-1.43.65,1.44,1.44,0,0,1-1.54-1.45c0-1.22,1.1-1.84,2.89-1.84v-.08c0-.32-.13-.85-1-.85a2.58,2.58,0,0,0-1.31.37l-.24-.8a3.46,3.46,0,0,1,1.76-.43,1.82,1.82,0,0,1,2,2v1.75a7.81,7.81,0,0,0,.07,1.17Zm-.16-2.38c-.87,0-1.7.17-1.7.91a.65.65,0,0,0,.7.7,1,1,0,0,0,1-.67,1.24,1.24,0,0,0,0-.27Z" transform="translate(-8.45 -5.67)" style="fill:#fff"/><path d="M340.45,112.69c0-.33,0-.86,0-1.36V105.6h1.23v2.9h0a1.71,1.71,0,0,1,1.55-.78c1.19,0,2,1,2,2.46a2.33,2.33,0,0,1-2.21,2.62,1.69,1.69,0,0,1-1.54-.84h0l-.05.73Zm1.27-2a1.36,1.36,0,0,0,0,.29,1.11,1.11,0,0,0,1.08.86c.77,0,1.24-.61,1.24-1.6s-.41-1.56-1.23-1.56a1.16,1.16,0,0,0-1.09.9,1.58,1.58,0,0,0,0,.32Z" transform="translate(-8.45 -5.67)" style="fill:#fff"/><path d="M325.78,58.24a10.58,10.58,0,0,1,1.86-.15,3.12,3.12,0,0,1,2.08.55A1.68,1.68,0,0,1,330.3,60a1.77,1.77,0,0,1-1.22,1.68v0A1.71,1.71,0,0,1,330,63a13,13,0,0,0,.53,1.88h-1.26a8.07,8.07,0,0,1-.46-1.59c-.19-.88-.51-1.16-1.21-1.18H327v2.77h-1.22Zm1.22,3h.73c.83,0,1.35-.44,1.35-1.11S328.56,59,327.76,59a3.54,3.54,0,0,0-.76.06Z" transform="translate(-8.45 -5.67)" style="fill:#231f20"/><path d="M335.24,61.89H332.7v2h2.84v1h-4.07V58.15h3.92v1H332.7v1.73h2.54Z" transform="translate(-8.45 -5.67)" style="fill:#231f20"/><path d="M336.59,63.54a3.44,3.44,0,0,0,1.63.43c.79,0,1.23-.37,1.23-.92s-.34-.81-1.2-1.12c-1.11-.39-1.82-1-1.82-2s.92-1.93,2.38-1.93a3.72,3.72,0,0,1,1.62.33l-.3,1a2.85,2.85,0,0,0-1.34-.32c-.78,0-1.11.41-1.11.81s.39.76,1.28,1.1c1.18.45,1.74,1,1.74,2s-.82,2-2.56,2a4,4,0,0,1-1.82-.43Z" transform="translate(-8.45 -5.67)" style="fill:#231f20"/><path d="M341.81,58.23a10.75,10.75,0,0,1,1.88-.14,3,3,0,0,1,2,.55,1.91,1.91,0,0,1,.66,1.5,2,2,0,0,1-.58,1.52,3,3,0,0,1-2.13.73,2.69,2.69,0,0,1-.6,0v2.54h-1.22ZM343,61.37a2.47,2.47,0,0,0,.6.06c.92,0,1.48-.46,1.48-1.25S344.59,59,343.74,59a3.4,3.4,0,0,0-.71.06Z" transform="translate(-8.45 -5.67)" style="fill:#231f20"/><path d="M329.49,37.7a10.58,10.58,0,0,1,1.86-.15,3.12,3.12,0,0,1,2.08.55,1.68,1.68,0,0,1,.58,1.35,1.77,1.77,0,0,1-1.22,1.68v0a1.71,1.71,0,0,1,.94,1.3,13,13,0,0,0,.53,1.88H333a8.07,8.07,0,0,1-.46-1.59c-.19-.88-.51-1.16-1.21-1.18h-.62v2.77h-1.22Zm1.22,3h.73c.83,0,1.35-.44,1.35-1.11s-.52-1.08-1.32-1.08a3.54,3.54,0,0,0-.76.06Z" transform="translate(-8.45 -5.67)" style="fill:#231f20"/><path d="M339.51,37.25V43c0,.5,0,1,0,1.36h-1.1l-.05-.77h0a1.73,1.73,0,0,1-1.58.88A2.23,2.23,0,0,1,334.71,42a2.33,2.33,0,0,1,2.19-2.6,1.54,1.54,0,0,1,1.36.63h0V37.25Zm-1.23,4.25a1.73,1.73,0,0,0,0-.32,1.08,1.08,0,0,0-1.06-.86c-.79,0-1.23.7-1.23,1.6s.45,1.55,1.22,1.55a1.09,1.09,0,0,0,1.06-.88,1.37,1.37,0,0,0,0-.36Z" transform="translate(-8.45 -5.67)" style="fill:#231f20"/><path d="M340.78,43.21a2.67,2.67,0,0,0,1.24.36c.54,0,.78-.23.78-.55s-.2-.5-.8-.71c-.95-.33-1.35-.84-1.34-1.42,0-.86.71-1.52,1.84-1.52a2.73,2.73,0,0,1,1.29.29l-.24.86a2.15,2.15,0,0,0-1-.28c-.44,0-.68.22-.68.52s.23.45.85.68c.89.31,1.29.76,1.3,1.48,0,.89-.69,1.53-2,1.53a3.14,3.14,0,0,1-1.48-.34Z" transform="translate(-8.45 -5.67)" style="fill:#231f20"/><path d="M102.3,219.61a1.75,1.75,0,0,1,.48-1.32,1.73,1.73,0,0,1,1.28-.47,1.83,1.83,0,0,1,1.34.47,1.75,1.75,0,0,1,.48,1.32,1.69,1.69,0,0,1-1.82,1.78,1.71,1.71,0,0,1-1.28-.5A1.8,1.8,0,0,1,102.3,219.61Zm6.72,0a1.64,1.64,0,0,1,1.77-1.79,1.8,1.8,0,0,1,1.33.47,1.75,1.75,0,0,1,.48,1.32,1.8,1.8,0,0,1-.48,1.28,1.78,1.78,0,0,1-1.33.5,1.72,1.72,0,0,1-1.29-.5A1.8,1.8,0,0,1,109,219.61Zm6.78,0a1.75,1.75,0,0,1,.48-1.32,1.73,1.73,0,0,1,1.28-.47,1.81,1.81,0,0,1,1.34.47,1.75,1.75,0,0,1,.48,1.32,1.69,1.69,0,0,1-1.82,1.78,1.71,1.71,0,0,1-1.28-.5A1.8,1.8,0,0,1,115.8,219.61Z" transform="translate(-8.45 -5.67)" style="fill:#955da6"/></svg>